<svg width="1229" height="1923" xmlns="http://www.w3.org/2000/svg" xmlns:xlink="http://www.w3.org/1999/xlink" overflow="hidden"><defs><clipPath id="clip0"><rect x="1491" y="28" width="1229" height="1923"/></clipPath><clipPath id="clip1"><rect x="1491" y="28" width="1226" height="1921"/></clipPath><clipPath id="clip2"><rect x="1491" y="28" width="1226" height="1921"/></clipPath><clipPath id="clip3"><rect x="1552" y="377" width="1098" height="685"/></clipPath><clipPath id="clip4"><rect x="1491" y="28" width="1226" height="1921"/></clipPath><clipPath id="clip5"><rect x="1552" y="377" width="1098" height="685"/></clipPath><clipPath id="clip6"><rect x="1491" y="28" width="1226" height="1921"/></clipPath><clipPath id="clip7"><rect x="1552" y="377" width="1098" height="685"/></clipPath><clipPath id="clip8"><rect x="1491" y="28" width="1226" height="1921"/></clipPath><clipPath id="clip9"><rect x="1552" y="377" width="1098" height="685"/></clipPath><clipPath id="clip10"><rect x="1491" y="28" width="1226" height="1921"/></clipPath><clipPath id="clip11"><rect x="1491" y="28" width="1226" height="1921"/></clipPath><clipPath id="clip12"><rect x="1491" y="28" width="1226" height="1921"/></clipPath><clipPath id="clip13"><rect x="1491" y="28" width="1226" height="1921"/></clipPath><clipPath id="clip14"><rect x="1491" y="28" width="1226" height="1921"/></clipPath><clipPath id="clip15"><rect x="1491" y="28" width="1226" height="1921"/></clipPath><clipPath id="clip16"><rect x="1491" y="28" width="1226" height="1921"/></clipPath><clipPath id="clip17"><rect x="1491" y="28" width="1226" height="1921"/></clipPath><clipPath id="clip18"><rect x="1491" y="28" width="1226" height="1921"/></clipPath><clipPath id="clip19"><rect x="1491" y="28" width="1226" height="1921"/></clipPath><clipPath id="clip20"><rect x="1491" y="28" width="1226" height="1921"/></clipPath><clipPath id="clip21"><rect x="1491" y="28" width="1226" height="1921"/></clipPath><clipPath id="clip22"><rect x="1491" y="28" width="1226" height="1921"/></clipPath><clipPath id="clip23"><rect x="1491" y="28" width="1226" height="1921"/></clipPath><clipPath id="clip24"><rect x="1491" y="28" width="1226" height="1921"/></clipPath><clipPath id="clip25"><rect x="1491" y="28" width="1226" height="1921"/></clipPath><clipPath id="clip26"><rect x="1491" y="28" width="1226" height="1921"/></clipPath><clipPath id="clip27"><rect x="1491" y="28" width="1226" height="1921"/></clipPath><clipPath id="clip28"><rect x="1491" y="28" width="1226" height="1921"/></clipPath><clipPath id="clip29"><rect x="1491" y="28" width="1226" height="1921"/></clipPath><clipPath id="clip30"><rect x="1491" y="28" width="1226" height="1921"/></clipPath><clipPath id="clip31"><rect x="1491" y="28" width="1226" height="1921"/></clipPath><clipPath id="clip32"><rect x="1491" y="28" width="1226" height="1921"/></clipPath><clipPath id="clip33"><rect x="1491" y="28" width="1226" height="1921"/></clipPath><clipPath id="clip34"><rect x="1491" y="28" width="1226" height="1921"/></clipPath><clipPath id="clip35"><rect x="1491" y="28" width="1226" height="1921"/></clipPath><clipPath id="clip36"><rect x="1491" y="28" width="1226" height="1921"/></clipPath><clipPath id="clip37"><rect x="1491" y="28" width="1226" height="1921"/></clipPath><clipPath id="clip38"><rect x="1491" y="28" width="1226" height="1921"/></clipPath><clipPath id="clip39"><rect x="1491" y="28" width="1226" height="1921"/></clipPath><clipPath id="clip40"><rect x="1491" y="28" width="1226" height="1921"/></clipPath></defs><g clip-path="url(#clip0)" transform="translate(-1491 -28)"><rect x="1492" y="28.9999" width="1226" height="1920" fill="#FFFFFF"/><g clip-path="url(#clip1)"><rect x="1552.5" y="377.5" width="1094" height="681" stroke="#385723" stroke-width="3.4375" stroke-linejoin="round" stroke-miterlimit="10" fill="none"/></g><g clip-path="url(#clip2)"><path d="M1552.5 1058.5 2646.5 1058.5" stroke="#BFBFBF" stroke-width="3.4375" stroke-linejoin="round" stroke-miterlimit="10" fill="none" fill-rule="evenodd"/></g><g clip-path="url(#clip3)"><path d="M2229.57 452.5 2186.5 452.5 2272.5 452.5" stroke="#993404" stroke-width="6.875" stroke-linecap="round" stroke-linejoin="round" stroke-miterlimit="10" fill="none"/></g><g clip-path="url(#clip4)"><path d="M2240.34 452.134C2240.34 458.208 2235.41 463.133 2229.34 463.133 2223.26 463.133 2218.34 458.208 2218.34 452.134 2218.34 446.059 2223.26 441.134 2229.34 441.134 2235.41 441.134 2240.34 446.059 2240.34 452.134Z" stroke="#993404" stroke-width="3.4375" stroke-linejoin="round" stroke-miterlimit="10" fill="#993404"/></g><g clip-path="url(#clip5)"><path d="M2165.57 604.5 2116.5 604.5 2213.5 604.5" stroke="#D95F0E" stroke-width="6.875" stroke-linecap="round" stroke-linejoin="round" stroke-miterlimit="10" fill="none"/></g><g clip-path="url(#clip6)"><path d="M2176.34 604.134C2176.34 610.209 2171.41 615.133 2165.34 615.133 2159.26 615.133 2154.34 610.209 2154.34 604.134 2154.34 598.059 2159.26 593.134 2165.34 593.134 2171.41 593.134 2176.34 598.059 2176.34 604.134Z" stroke="#D95F0E" stroke-width="3.4375" stroke-linejoin="round" stroke-miterlimit="10" fill="#D95F0E"/></g><g clip-path="url(#clip7)"><path d="M2055.57 755.5 2018.5 755.5 2092.5 755.5" stroke="#FE9929" stroke-width="6.875" stroke-linecap="round" stroke-linejoin="round" stroke-miterlimit="10" fill="none"/></g><g clip-path="url(#clip8)"><path d="M2066.34 755.134C2066.34 761.209 2061.41 766.133 2055.34 766.133 2049.26 766.133 2044.34 761.209 2044.34 755.134 2044.34 749.059 2049.26 744.134 2055.34 744.134 2061.41 744.134 2066.34 749.059 2066.34 755.134Z" stroke="#FE9929" stroke-width="3.4375" stroke-linejoin="round" stroke-miterlimit="10" fill="#FE9929"/></g><g clip-path="url(#clip9)"><path d="M2242.57 907.5 2157.5 907.5 2326.5 907.5" stroke="#FED98E" stroke-width="6.875" stroke-linecap="round" stroke-linejoin="round" stroke-miterlimit="10" fill="none"/></g><g clip-path="url(#clip10)"><path d="M2253.34 907.134C2253.34 913.209 2248.41 918.133 2242.34 918.133 2236.26 918.133 2231.34 913.209 2231.34 907.134 2231.34 901.059 2236.26 896.134 2242.34 896.134 2248.41 896.134 2253.34 901.059 2253.34 907.134Z" stroke="#FED98E" stroke-width="3.4375" stroke-linejoin="round" stroke-miterlimit="10" fill="#FED98E"/></g><g clip-path="url(#clip11)"><text fill="#595959" font-family="Calibri,Calibri_MSFontService,sans-serif" font-weight="400" font-size="41" transform="matrix(1 0 0 1 1526.45 1124)">0.0</text></g><g clip-path="url(#clip12)"><text fill="#595959" font-family="Calibri,Calibri_MSFontService,sans-serif" font-weight="400" font-size="41" transform="matrix(1 0 0 1 1708.84 1124)">0.5</text></g><g clip-path="url(#clip13)"><text fill="#595959" font-family="Calibri,Calibri_MSFontService,sans-serif" font-weight="400" font-size="41" transform="matrix(1 0 0 1 1891.24 1124)">1.0</text></g><g clip-path="url(#clip14)"><text fill="#595959" font-family="Calibri,Calibri_MSFontService,sans-serif" font-weight="400" font-size="41" transform="matrix(1 0 0 1 2073.64 1124)">1.5</text></g><g clip-path="url(#clip15)"><text fill="#595959" font-family="Calibri,Calibri_MSFontService,sans-serif" font-weight="400" font-size="41" transform="matrix(1 0 0 1 2256.04 1124)">2.0</text></g><g clip-path="url(#clip16)"><text fill="#595959" font-family="Calibri,Calibri_MSFontService,sans-serif" font-weight="400" font-size="41" transform="matrix(1 0 0 1 2438.44 1124)">2.5</text></g><g clip-path="url(#clip17)"><text fill="#595959" font-family="Calibri,Calibri_MSFontService,sans-serif" font-weight="400" font-size="41" transform="matrix(1 0 0 1 2620.84 1124)">3.0</text></g><g clip-path="url(#clip18)"><text fill="#595959" font-family="Calibri,Calibri_MSFontService,sans-serif" font-weight="400" font-size="46" transform="matrix(1 0 0 1 1675.07 1216)">School</text></g><g clip-path="url(#clip19)"><text fill="#595959" font-family="Calibri,Calibri_MSFontService,sans-serif" font-weight="400" font-size="46" transform="matrix(1 0 0 1 1798.48 1216)">-</text></g><g clip-path="url(#clip20)"><text fill="#595959" font-family="Calibri,Calibri_MSFontService,sans-serif" font-weight="400" font-size="46" transform="matrix(1 0 0 1 1812.5 1216)">Level Teacher Mobility/Attrition Rate</text></g><g clip-path="url(#clip21)"><text fill="#595959" font-family="Calibri,Calibri_MSFontService,sans-serif" font-weight="400" font-size="46" transform="matrix(1 0 0 1 1781.73 1272)">___________________________</text></g><g clip-path="url(#clip22)"><text fill="#595959" font-family="Calibri,Calibri_MSFontService,sans-serif" font-weight="400" font-size="46" transform="matrix(1 0 0 1 1841.91 1383)">ELL Students (%) by School</text></g><g clip-path="url(#clip23)"><text fill="#595959" font-family="Calibri,Calibri_MSFontService,sans-serif" font-weight="400" font-size="64" transform="matrix(1 0 0 1 1634.78 124)">Comparison of School</text></g><g clip-path="url(#clip24)"><text fill="#595959" font-family="Calibri,Calibri_MSFontService,sans-serif" font-weight="400" font-size="64" transform="matrix(1 0 0 1 2203.5 124)">-</text></g><g clip-path="url(#clip25)"><text fill="#595959" font-family="Calibri,Calibri_MSFontService,sans-serif" font-weight="400" font-size="64" transform="matrix(1 0 0 1 2223.14 124)">Level Teacher </text></g><g clip-path="url(#clip26)"><text fill="#595959" font-family="Calibri,Calibri_MSFontService,sans-serif" font-weight="400" font-size="64" transform="matrix(1 0 0 1 1691.36 202)">Mobility/Attrition Rate (per 100 </text></g><g clip-path="url(#clip27)"><text fill="#595959" font-family="Calibri,Calibri_MSFontService,sans-serif" font-weight="400" font-size="64" transform="matrix(1 0 0 1 1696.06 281)">students) and English Language </text></g><g clip-path="url(#clip28)"><text fill="#595959" font-family="Calibri,Calibri_MSFontService,sans-serif" font-weight="400" font-size="64" transform="matrix(1 0 0 1 1832.76 359)">Learner Students (%)</text></g><g clip-path="url(#clip29)"><path d="M1778.5 1516.5 1866.5 1516.5" stroke="#993404" stroke-width="6.875" stroke-linecap="round" stroke-linejoin="round" stroke-miterlimit="10" fill="none" fill-rule="evenodd"/></g><g clip-path="url(#clip30)"><path d="M1833 1516C1833 1522.07 1828.08 1527 1822 1527 1815.93 1527 1811 1522.07 1811 1516 1811 1509.92 1815.93 1505 1822 1505 1828.08 1505 1833 1509.92 1833 1516Z" stroke="#993404" stroke-width="3.4375" stroke-linejoin="round" stroke-miterlimit="10" fill="#993404"/></g><g clip-path="url(#clip31)"><text fill="#595959" font-family="Calibri,Calibri_MSFontService,sans-serif" font-weight="400" font-size="41" transform="matrix(1 0 0 1 1876.23 1528)">4th Quartile (Highest Percentage)</text></g><g clip-path="url(#clip32)"><path d="M1778.5 1626.5 1866.5 1626.5" stroke="#D95F0E" stroke-width="6.875" stroke-linecap="round" stroke-linejoin="round" stroke-miterlimit="10" fill="none" fill-rule="evenodd"/></g><g clip-path="url(#clip33)"><path d="M1833 1626C1833 1632.07 1828.08 1637 1822 1637 1815.93 1637 1811 1632.07 1811 1626 1811 1619.92 1815.93 1615 1822 1615 1828.08 1615 1833 1619.92 1833 1626Z" stroke="#D95F0E" stroke-width="3.4375" stroke-linejoin="round" stroke-miterlimit="10" fill="#D95F0E"/></g><g clip-path="url(#clip34)"><text fill="#595959" font-family="Calibri,Calibri_MSFontService,sans-serif" font-weight="400" font-size="41" transform="matrix(1 0 0 1 1876.23 1638)">3rd Quartile</text></g><g clip-path="url(#clip35)"><path d="M1778.5 1736.5 1866.5 1736.5" stroke="#FE9929" stroke-width="6.875" stroke-linecap="round" stroke-linejoin="round" stroke-miterlimit="10" fill="none" fill-rule="evenodd"/></g><g clip-path="url(#clip36)"><path d="M1833 1736C1833 1742.07 1828.08 1747 1822 1747 1815.93 1747 1811 1742.07 1811 1736 1811 1729.92 1815.93 1725 1822 1725 1828.08 1725 1833 1729.92 1833 1736Z" stroke="#FE9929" stroke-width="3.4375" stroke-linejoin="round" stroke-miterlimit="10" fill="#FE9929"/></g><g clip-path="url(#clip37)"><text fill="#595959" font-family="Calibri,Calibri_MSFontService,sans-serif" font-weight="400" font-size="41" transform="matrix(1 0 0 1 1876.23 1748)">2nd Quartile</text></g><g clip-path="url(#clip38)"><path d="M1778.5 1846.5 1866.5 1846.5" stroke="#FED98E" stroke-width="6.875" stroke-linecap="round" stroke-linejoin="round" stroke-miterlimit="10" fill="none" fill-rule="evenodd"/></g><g clip-path="url(#clip39)"><path d="M1833 1846C1833 1852.07 1828.08 1857 1822 1857 1815.93 1857 1811 1852.07 1811 1846 1811 1839.92 1815.93 1835 1822 1835 1828.08 1835 1833 1839.92 1833 1846Z" stroke="#FED98E" stroke-width="3.4375" stroke-linejoin="round" stroke-miterlimit="10" fill="#FED98E"/></g><g clip-path="url(#clip40)"><text fill="#595959" font-family="Calibri,Calibri_MSFontService,sans-serif" font-weight="400" font-size="41" transform="matrix(1 0 0 1 1876.23 1858)">1st Quartile (Lowest Percentage)</text></g><rect x="1492.5" y="29.5001" width="1226" height="1920" stroke="#D9D9D9" stroke-width="3.4375" stroke-linejoin="round" stroke-miterlimit="10" fill="none"/></g></svg>
