<svg width="1209" height="1971" xmlns="http://www.w3.org/2000/svg" xmlns:xlink="http://www.w3.org/1999/xlink" overflow="hidden"><defs><clipPath id="clip0"><rect x="-1" y="-1" width="1209" height="1971"/></clipPath><clipPath id="clip1"><rect x="0" y="0" width="1206" height="1968"/></clipPath><clipPath id="clip2"><rect x="0" y="0" width="1206" height="1968"/></clipPath><clipPath id="clip3"><rect x="59" y="357" width="1081" height="702"/></clipPath><clipPath id="clip4"><rect x="0" y="0" width="1206" height="1968"/></clipPath><clipPath id="clip5"><rect x="59" y="357" width="1081" height="702"/></clipPath><clipPath id="clip6"><rect x="0" y="0" width="1206" height="1968"/></clipPath><clipPath id="clip7"><rect x="59" y="357" width="1081" height="702"/></clipPath><clipPath id="clip8"><rect x="0" y="0" width="1206" height="1968"/></clipPath><clipPath id="clip9"><rect x="59" y="357" width="1081" height="702"/></clipPath><clipPath id="clip10"><rect x="0" y="0" width="1206" height="1968"/></clipPath><clipPath id="clip11"><rect x="0" y="0" width="1206" height="1968"/></clipPath><clipPath id="clip12"><rect x="0" y="0" width="1206" height="1968"/></clipPath><clipPath id="clip13"><rect x="0" y="0" width="1206" height="1968"/></clipPath><clipPath id="clip14"><rect x="0" y="0" width="1206" height="1968"/></clipPath><clipPath id="clip15"><rect x="0" y="0" width="1206" height="1968"/></clipPath><clipPath id="clip16"><rect x="0" y="0" width="1206" height="1968"/></clipPath><clipPath id="clip17"><rect x="0" y="0" width="1206" height="1968"/></clipPath><clipPath id="clip18"><rect x="0" y="0" width="1206" height="1968"/></clipPath><clipPath id="clip19"><rect x="0" y="0" width="1206" height="1968"/></clipPath><clipPath id="clip20"><rect x="0" y="0" width="1206" height="1968"/></clipPath><clipPath id="clip21"><rect x="0" y="0" width="1206" height="1968"/></clipPath><clipPath id="clip22"><rect x="0" y="0" width="1206" height="1968"/></clipPath><clipPath id="clip23"><rect x="0" y="0" width="1206" height="1968"/></clipPath><clipPath id="clip24"><rect x="0" y="0" width="1206" height="1968"/></clipPath><clipPath id="clip25"><rect x="0" y="0" width="1206" height="1968"/></clipPath><clipPath id="clip26"><rect x="0" y="0" width="1206" height="1968"/></clipPath><clipPath id="clip27"><rect x="0" y="0" width="1206" height="1968"/></clipPath><clipPath id="clip28"><rect x="0" y="0" width="1206" height="1968"/></clipPath><clipPath id="clip29"><rect x="0" y="0" width="1206" height="1968"/></clipPath><clipPath id="clip30"><rect x="0" y="0" width="1206" height="1968"/></clipPath><clipPath id="clip31"><rect x="0" y="0" width="1206" height="1968"/></clipPath><clipPath id="clip32"><rect x="0" y="0" width="1206" height="1968"/></clipPath><clipPath id="clip33"><rect x="0" y="0" width="1206" height="1968"/></clipPath><clipPath id="clip34"><rect x="0" y="0" width="1206" height="1968"/></clipPath><clipPath id="clip35"><rect x="0" y="0" width="1206" height="1968"/></clipPath><clipPath id="clip36"><rect x="0" y="0" width="1206" height="1968"/></clipPath><clipPath id="clip37"><rect x="0" y="0" width="1206" height="1968"/></clipPath><clipPath id="clip38"><rect x="0" y="0" width="1206" height="1968"/></clipPath><clipPath id="clip39"><rect x="0" y="0" width="1206" height="1968"/></clipPath><clipPath id="clip40"><rect x="0" y="0" width="1206" height="1968"/></clipPath></defs><g clip-path="url(#clip0)" transform="translate(1 1)"><rect x="0" y="0" width="1206" height="1968" fill="#FFFFFF"/><g clip-path="url(#clip1)"><rect x="59.5" y="357.5" width="1077" height="698" stroke="#385723" stroke-width="3.4375" stroke-linejoin="round" stroke-miterlimit="10" fill="none"/></g><g clip-path="url(#clip2)"><path d="M59.5 1055.5 1136.5 1055.5" stroke="#BFBFBF" stroke-width="3.4375" stroke-linejoin="round" stroke-miterlimit="10" fill="none" fill-rule="evenodd"/></g><g clip-path="url(#clip3)"><path d="M845.528 434.5 793.5 434.5 897.5 434.5" stroke="#993404" stroke-width="6.875" stroke-linecap="round" stroke-linejoin="round" stroke-miterlimit="10" fill="none"/></g><g clip-path="url(#clip4)"><path d="M856.499 434.5C856.499 440.575 851.575 445.499 845.5 445.499 839.425 445.499 834.5 440.575 834.5 434.5 834.5 428.425 839.425 423.5 845.5 423.5 851.575 423.5 856.499 428.425 856.499 434.5Z" stroke="#993404" stroke-width="3.4375" stroke-linejoin="round" stroke-miterlimit="10" fill="#993404"/></g><g clip-path="url(#clip5)"><path d="M718.524 589.5 664.5 589.5 773.5 589.5" stroke="#D95F0E" stroke-width="6.875" stroke-linecap="round" stroke-linejoin="round" stroke-miterlimit="10" fill="none"/></g><g clip-path="url(#clip6)"><path d="M729.499 589.5C729.499 595.575 724.575 600.499 718.5 600.499 712.425 600.499 707.5 595.575 707.5 589.5 707.5 583.425 712.425 578.5 718.5 578.5 724.575 578.5 729.499 583.425 729.499 589.5Z" stroke="#D95F0E" stroke-width="3.4375" stroke-linejoin="round" stroke-miterlimit="10" fill="#D95F0E"/></g><g clip-path="url(#clip7)"><path d="M615.52 745.5 568.5 745.5 661.5 745.5" stroke="#FE9929" stroke-width="6.875" stroke-linecap="round" stroke-linejoin="round" stroke-miterlimit="10" fill="none"/></g><g clip-path="url(#clip8)"><path d="M626.499 745.5C626.499 751.575 621.575 756.499 615.5 756.499 609.425 756.499 604.5 751.575 604.5 745.5 604.5 739.425 609.425 734.5 615.5 734.5 621.575 734.5 626.499 739.425 626.499 745.5Z" stroke="#FE9929" stroke-width="3.4375" stroke-linejoin="round" stroke-miterlimit="10" fill="#FE9929"/></g><g clip-path="url(#clip9)"><path d="M736.524 900.5 631.5 900.5 841.5 900.5" stroke="#FED98E" stroke-width="6.875" stroke-linecap="round" stroke-linejoin="round" stroke-miterlimit="10" fill="none"/></g><g clip-path="url(#clip10)"><path d="M747.499 900.5C747.499 906.575 742.575 911.499 736.5 911.499 730.425 911.499 725.5 906.575 725.5 900.5 725.5 894.425 730.425 889.5 736.5 889.5 742.575 889.5 747.499 894.425 747.499 900.5Z" stroke="#FED98E" stroke-width="3.4375" stroke-linejoin="round" stroke-miterlimit="10" fill="#FED98E"/></g><g clip-path="url(#clip11)"><text fill="#595959" font-family="Calibri,Calibri_MSFontService,sans-serif" font-weight="400" font-size="41" transform="matrix(1 0 0 1 33.6366 1121)">0.0</text></g><g clip-path="url(#clip12)"><text fill="#595959" font-family="Calibri,Calibri_MSFontService,sans-serif" font-weight="400" font-size="41" transform="matrix(1 0 0 1 213.12 1121)">0.5</text></g><g clip-path="url(#clip13)"><text fill="#595959" font-family="Calibri,Calibri_MSFontService,sans-serif" font-weight="400" font-size="41" transform="matrix(1 0 0 1 392.603 1121)">1.0</text></g><g clip-path="url(#clip14)"><text fill="#595959" font-family="Calibri,Calibri_MSFontService,sans-serif" font-weight="400" font-size="41" transform="matrix(1 0 0 1 572.086 1121)">1.5</text></g><g clip-path="url(#clip15)"><text fill="#595959" font-family="Calibri,Calibri_MSFontService,sans-serif" font-weight="400" font-size="41" transform="matrix(1 0 0 1 751.568 1121)">2.0</text></g><g clip-path="url(#clip16)"><text fill="#595959" font-family="Calibri,Calibri_MSFontService,sans-serif" font-weight="400" font-size="41" transform="matrix(1 0 0 1 931.051 1121)">2.5</text></g><g clip-path="url(#clip17)"><text fill="#595959" font-family="Calibri,Calibri_MSFontService,sans-serif" font-weight="400" font-size="41" transform="matrix(1 0 0 1 1110.53 1121)">3.0</text></g><g clip-path="url(#clip18)"><text fill="#595959" font-family="Calibri,Calibri_MSFontService,sans-serif" font-weight="400" font-size="46" transform="matrix(1 0 0 1 180.526 1215)">School</text></g><g clip-path="url(#clip19)"><text fill="#595959" font-family="Calibri,Calibri_MSFontService,sans-serif" font-weight="400" font-size="46" transform="matrix(1 0 0 1 303.932 1215)">-</text></g><g clip-path="url(#clip20)"><text fill="#595959" font-family="Calibri,Calibri_MSFontService,sans-serif" font-weight="400" font-size="46" transform="matrix(1 0 0 1 317.957 1215)">Level Teacher Mobility/Attrition Rate</text></g><g clip-path="url(#clip21)"><text fill="#595959" font-family="Calibri,Calibri_MSFontService,sans-serif" font-weight="400" font-size="46" transform="matrix(1 0 0 1 287.18 1271)">___________________________</text></g><g clip-path="url(#clip22)"><text fill="#595959" font-family="Calibri,Calibri_MSFontService,sans-serif" font-weight="400" font-size="46" transform="matrix(1 0 0 1 333.38 1382)">FRPL Students (%) by School</text></g><g clip-path="url(#clip23)"><text fill="#595959" font-family="Calibri,Calibri_MSFontService,sans-serif" font-weight="400" font-size="64" transform="matrix(1 0 0 1 242.08 95)">Comparison of School</text></g><g clip-path="url(#clip24)"><text fill="#595959" font-family="Calibri,Calibri_MSFontService,sans-serif" font-weight="400" font-size="64" transform="matrix(1 0 0 1 810.803 95)">-</text></g><g clip-path="url(#clip25)"><text fill="#595959" font-family="Calibri,Calibri_MSFontService,sans-serif" font-weight="400" font-size="64" transform="matrix(1 0 0 1 830.443 95)">Level </text></g><g clip-path="url(#clip26)"><text fill="#595959" font-family="Calibri,Calibri_MSFontService,sans-serif" font-weight="400" font-size="64" transform="matrix(1 0 0 1 136.847 173)">Teacher Attrition/Mobility Rate (per </text></g><g clip-path="url(#clip27)"><text fill="#595959" font-family="Calibri,Calibri_MSFontService,sans-serif" font-weight="400" font-size="64" transform="matrix(1 0 0 1 181.076 252)">100 students) and Students with </text></g><g clip-path="url(#clip28)"><text fill="#595959" font-family="Calibri,Calibri_MSFontService,sans-serif" font-weight="400" font-size="64" transform="matrix(1 0 0 1 162.72 330)">Free and Reduced Price Lunch (%)</text></g><g clip-path="url(#clip29)"><path d="M277.5 1525.5 365.5 1525.5" stroke="#993404" stroke-width="6.875" stroke-linecap="round" stroke-linejoin="round" stroke-miterlimit="10" fill="none" fill-rule="evenodd"/></g><g clip-path="url(#clip30)"><path d="M332 1525C332 1531.07 327.075 1536 321 1536 314.925 1536 310 1531.07 310 1525 310 1518.92 314.925 1514 321 1514 327.075 1514 332 1518.92 332 1525Z" stroke="#993404" stroke-width="3.4375" stroke-linejoin="round" stroke-miterlimit="10" fill="#993404"/></g><g clip-path="url(#clip31)"><text fill="#595959" font-family="Calibri,Calibri_MSFontService,sans-serif" font-weight="400" font-size="41" transform="matrix(1 0 0 1 374.711 1537)">4th Quartile (Highest Percentage)</text></g><g clip-path="url(#clip32)"><path d="M277.5 1637.5 365.5 1637.5" stroke="#D95F0E" stroke-width="6.875" stroke-linecap="round" stroke-linejoin="round" stroke-miterlimit="10" fill="none" fill-rule="evenodd"/></g><g clip-path="url(#clip33)"><path d="M332 1637C332 1643.07 327.075 1648 321 1648 314.925 1648 310 1643.07 310 1637 310 1630.92 314.925 1626 321 1626 327.075 1626 332 1630.92 332 1637Z" stroke="#D95F0E" stroke-width="3.4375" stroke-linejoin="round" stroke-miterlimit="10" fill="#D95F0E"/></g><g clip-path="url(#clip34)"><text fill="#595959" font-family="Calibri,Calibri_MSFontService,sans-serif" font-weight="400" font-size="41" transform="matrix(1 0 0 1 374.711 1649)">3rd Quartile</text></g><g clip-path="url(#clip35)"><path d="M277.5 1750.5 365.5 1750.5" stroke="#FE9929" stroke-width="6.875" stroke-linecap="round" stroke-linejoin="round" stroke-miterlimit="10" fill="none" fill-rule="evenodd"/></g><g clip-path="url(#clip36)"><path d="M332 1750C332 1756.07 327.075 1761 321 1761 314.925 1761 310 1756.07 310 1750 310 1743.92 314.925 1739 321 1739 327.075 1739 332 1743.92 332 1750Z" stroke="#FE9929" stroke-width="3.4375" stroke-linejoin="round" stroke-miterlimit="10" fill="#FE9929"/></g><g clip-path="url(#clip37)"><text fill="#595959" font-family="Calibri,Calibri_MSFontService,sans-serif" font-weight="400" font-size="41" transform="matrix(1 0 0 1 374.711 1762)">2nd Quartile</text></g><g clip-path="url(#clip38)"><path d="M277.5 1863.5 365.5 1863.5" stroke="#FED98E" stroke-width="6.875" stroke-linecap="round" stroke-linejoin="round" stroke-miterlimit="10" fill="none" fill-rule="evenodd"/></g><g clip-path="url(#clip39)"><path d="M332 1863C332 1869.07 327.075 1874 321 1874 314.925 1874 310 1869.07 310 1863 310 1856.92 314.925 1852 321 1852 327.075 1852 332 1856.92 332 1863Z" stroke="#FED98E" stroke-width="3.4375" stroke-linejoin="round" stroke-miterlimit="10" fill="#FED98E"/></g><g clip-path="url(#clip40)"><text fill="#595959" font-family="Calibri,Calibri_MSFontService,sans-serif" font-weight="400" font-size="41" transform="matrix(1 0 0 1 374.711 1875)">1st Quartile (Lowest Percentage)</text></g><rect x="0.499836" y="0.499836" width="1206" height="1968" stroke="#D9D9D9" stroke-width="3.4375" stroke-linejoin="round" stroke-miterlimit="10" fill="none"/></g></svg>