<svg width="1151" height="1101" xmlns="http://www.w3.org/2000/svg" xmlns:xlink="http://www.w3.org/1999/xlink" overflow="hidden"><defs><clipPath id="clip0"><rect x="1497" y="28" width="1151" height="1101"/></clipPath><clipPath id="clip1"><rect x="1497" y="28" width="1148" height="1098"/></clipPath><clipPath id="clip2"><rect x="1554" y="78" width="1029" height="619"/></clipPath><clipPath id="clip3"><rect x="1497" y="28" width="1148" height="1098"/></clipPath><clipPath id="clip4"><rect x="1554" y="78" width="1029" height="619"/></clipPath><clipPath id="clip5"><rect x="1497" y="28" width="1148" height="1098"/></clipPath><clipPath id="clip6"><rect x="1554" y="78" width="1029" height="619"/></clipPath><clipPath id="clip7"><rect x="1497" y="28" width="1148" height="1098"/></clipPath><clipPath id="clip8"><rect x="1554" y="78" width="1029" height="619"/></clipPath><clipPath id="clip9"><rect x="1497" y="28" width="1148" height="1098"/></clipPath><clipPath id="clip10"><rect x="1497" y="28" width="1148" height="1098"/></clipPath><clipPath id="clip11"><rect x="1497" y="28" width="1148" height="1098"/></clipPath><clipPath id="clip12"><rect x="1497" y="28" width="1148" height="1098"/></clipPath><clipPath id="clip13"><rect x="1497" y="28" width="1148" height="1098"/></clipPath><clipPath id="clip14"><rect x="1497" y="28" width="1148" height="1098"/></clipPath><clipPath id="clip15"><rect x="1497" y="28" width="1148" height="1098"/></clipPath><clipPath id="clip16"><rect x="1497" y="28" width="1148" height="1098"/></clipPath><clipPath id="clip17"><rect x="1497" y="28" width="1148" height="1098"/></clipPath><clipPath id="clip18"><rect x="1497" y="28" width="1148" height="1098"/></clipPath><clipPath id="clip19"><rect x="1497" y="28" width="1148" height="1098"/></clipPath><clipPath id="clip20"><rect x="1497" y="28" width="1148" height="1098"/></clipPath><clipPath id="clip21"><rect x="1497" y="28" width="1148" height="1098"/></clipPath><clipPath id="clip22"><rect x="1497" y="28" width="1148" height="1098"/></clipPath><clipPath id="clip23"><rect x="1497" y="28" width="1148" height="1098"/></clipPath><clipPath id="clip24"><rect x="1497" y="28" width="1148" height="1098"/></clipPath><clipPath id="clip25"><rect x="1497" y="28" width="1148" height="1098"/></clipPath><clipPath id="clip26"><rect x="1497" y="28" width="1148" height="1098"/></clipPath><clipPath id="clip27"><rect x="1497" y="28" width="1148" height="1098"/></clipPath><clipPath id="clip28"><rect x="1497" y="28" width="1148" height="1098"/></clipPath><clipPath id="clip29"><rect x="1497" y="28" width="1148" height="1098"/></clipPath></defs><g clip-path="url(#clip0)" transform="translate(-1497 -28)"><rect x="1498" y="28.9999" width="1148" height="1098" fill="#FFFFFF"/><g clip-path="url(#clip1)"><path d="M1554.5 693.5 2579.5 693.5" stroke="#BFBFBF" stroke-width="3.4375" stroke-linejoin="round" stroke-miterlimit="10" fill="none" fill-rule="evenodd"/></g><g clip-path="url(#clip2)"><path d="M1989.57 147.5 1916.5 147.5 2062.5 147.5" stroke="#385723" stroke-width="6.875" stroke-linecap="round" stroke-linejoin="round" stroke-miterlimit="10" fill="none"/></g><g clip-path="url(#clip3)"><path d="M2000.45 147.134C2000.45 153.209 1995.52 158.134 1989.45 158.134 1983.37 158.134 1978.45 153.209 1978.45 147.134 1978.45 141.059 1983.37 136.134 1989.45 136.134 1995.52 136.134 2000.45 141.059 2000.45 147.134Z" stroke="#385723" stroke-width="3.4375" stroke-linejoin="round" stroke-miterlimit="10" fill="#385723"/></g><g clip-path="url(#clip4)"><path d="M2206.57 283.5 1929.5 283.5 2482.5 283.5" stroke="#548235" stroke-width="6.875" stroke-linecap="round" stroke-linejoin="round" stroke-miterlimit="10" fill="none"/></g><g clip-path="url(#clip5)"><path d="M2217.45 283.134C2217.45 289.209 2212.52 294.134 2206.45 294.134 2200.37 294.134 2195.45 289.209 2195.45 283.134 2195.45 277.059 2200.37 272.134 2206.45 272.134 2212.52 272.134 2217.45 277.059 2217.45 283.134Z" stroke="#548235" stroke-width="3.4375" stroke-linejoin="round" stroke-miterlimit="10" fill="#548235"/></g><g clip-path="url(#clip6)"><path d="M2039.57 420.5 1991.5 420.5 2088.5 420.5" stroke="#A9D18E" stroke-width="6.875" stroke-linecap="round" stroke-linejoin="round" stroke-miterlimit="10" fill="none"/></g><g clip-path="url(#clip7)"><path d="M2051.45 420.134C2051.45 426.209 2046.52 431.134 2040.45 431.134 2034.37 431.134 2029.45 426.209 2029.45 420.134 2029.45 414.059 2034.37 409.134 2040.45 409.134 2046.52 409.134 2051.45 414.059 2051.45 420.134Z" stroke="#A9D18E" stroke-width="3.4375" stroke-linejoin="round" stroke-miterlimit="10" fill="#A9D18E"/></g><g clip-path="url(#clip8)"><path d="M2208.57 556.5 2154.5 556.5 2262.5 556.5" stroke="#C5E0B4" stroke-width="6.875" stroke-linecap="round" stroke-linejoin="round" stroke-miterlimit="10" fill="none"/></g><g clip-path="url(#clip9)"><path d="M2219.45 556.134C2219.45 562.209 2214.52 567.134 2208.45 567.134 2202.37 567.134 2197.45 562.209 2197.45 556.134 2197.45 550.059 2202.37 545.134 2208.45 545.134 2214.52 545.134 2219.45 550.059 2219.45 556.134Z" stroke="#C5E0B4" stroke-width="3.4375" stroke-linejoin="round" stroke-miterlimit="10" fill="#C5E0B4"/></g><g clip-path="url(#clip10)"><text fill="#595959" font-family="Calibri,Calibri_MSFontService,sans-serif" font-weight="400" font-size="41" transform="matrix(1 0 0 1 1528.7 759)">0.0</text></g><g clip-path="url(#clip11)"><text fill="#595959" font-family="Calibri,Calibri_MSFontService,sans-serif" font-weight="400" font-size="41" transform="matrix(1 0 0 1 1699.51 759)">0.5</text></g><g clip-path="url(#clip12)"><text fill="#595959" font-family="Calibri,Calibri_MSFontService,sans-serif" font-weight="400" font-size="41" transform="matrix(1 0 0 1 1870.32 759)">1.0</text></g><g clip-path="url(#clip13)"><text fill="#595959" font-family="Calibri,Calibri_MSFontService,sans-serif" font-weight="400" font-size="41" transform="matrix(1 0 0 1 2041.13 759)">1.5</text></g><g clip-path="url(#clip14)"><text fill="#595959" font-family="Calibri,Calibri_MSFontService,sans-serif" font-weight="400" font-size="41" transform="matrix(1 0 0 1 2211.94 759)">2.0</text></g><g clip-path="url(#clip15)"><text fill="#595959" font-family="Calibri,Calibri_MSFontService,sans-serif" font-weight="400" font-size="41" transform="matrix(1 0 0 1 2382.76 759)">2.5</text></g><g clip-path="url(#clip16)"><text fill="#595959" font-family="Calibri,Calibri_MSFontService,sans-serif" font-weight="400" font-size="41" transform="matrix(1 0 0 1 2553.57 759)">3.0</text></g><g clip-path="url(#clip17)"><text fill="#595959" font-family="Calibri,Calibri_MSFontService,sans-serif" font-weight="400" font-size="46" transform="matrix(1 0 0 1 1908.5 828)">Overall Score (%)</text></g><g clip-path="url(#clip18)"><path d="M1730.5 879.5 1818.5 879.501" stroke="#385723" stroke-width="6.875" stroke-linecap="round" stroke-linejoin="round" stroke-miterlimit="10" fill="none" fill-rule="evenodd"/></g><g clip-path="url(#clip19)"><path d="M1785 879C1785 885.075 1780.07 890 1774 890 1767.92 890 1763 885.075 1763 879 1763 872.925 1767.92 868 1774 868 1780.07 868 1785 872.925 1785 879Z" stroke="#385723" stroke-width="3.4375" stroke-linejoin="round" stroke-miterlimit="10" fill="#385723"/></g><g clip-path="url(#clip20)"><text fill="#595959" font-family="Calibri,Calibri_MSFontService,sans-serif" font-weight="400" font-size="41" transform="matrix(1 0 0 1 1827.6 891)">4th Quartile (Highest Overall Score)</text></g><g clip-path="url(#clip21)"><path d="M1730.5 942.5 1818.5 942.5" stroke="#548235" stroke-width="6.875" stroke-linecap="round" stroke-linejoin="round" stroke-miterlimit="10" fill="none" fill-rule="evenodd"/></g><g clip-path="url(#clip22)"><path d="M1785 942C1785 948.075 1780.07 953 1774 953 1767.92 953 1763 948.075 1763 942 1763 935.925 1767.92 931 1774 931 1780.07 931 1785 935.925 1785 942Z" stroke="#548235" stroke-width="3.4375" stroke-linejoin="round" stroke-miterlimit="10" fill="#548235"/></g><g clip-path="url(#clip23)"><text fill="#595959" font-family="Calibri,Calibri_MSFontService,sans-serif" font-weight="400" font-size="41" transform="matrix(1 0 0 1 1827.6 954)">3rd Quartile</text></g><g clip-path="url(#clip24)"><path d="M1730.5 1005.5 1818.5 1005.5" stroke="#A9D18E" stroke-width="6.875" stroke-linecap="round" stroke-linejoin="round" stroke-miterlimit="10" fill="none" fill-rule="evenodd"/></g><g clip-path="url(#clip25)"><path d="M1785 1005C1785 1011.07 1780.07 1016 1774 1016 1767.92 1016 1763 1011.07 1763 1005 1763 998.925 1767.92 994 1774 994 1780.07 994 1785 998.925 1785 1005Z" stroke="#A9D18E" stroke-width="3.4375" stroke-linejoin="round" stroke-miterlimit="10" fill="#A9D18E"/></g><g clip-path="url(#clip26)"><text fill="#595959" font-family="Calibri,Calibri_MSFontService,sans-serif" font-weight="400" font-size="41" transform="matrix(1 0 0 1 1827.6 1017)">2nd Quartile</text></g><g clip-path="url(#clip27)"><path d="M1730.5 1068.5 1818.5 1068.5" stroke="#C5E0B4" stroke-width="6.875" stroke-linecap="round" stroke-linejoin="round" stroke-miterlimit="10" fill="none" fill-rule="evenodd"/></g><g clip-path="url(#clip28)"><path d="M1785 1068C1785 1074.07 1780.07 1079 1774 1079 1767.92 1079 1763 1074.07 1763 1068 1763 1061.92 1767.92 1057 1774 1057 1780.07 1057 1785 1061.92 1785 1068Z" stroke="#C5E0B4" stroke-width="3.4375" stroke-linejoin="round" stroke-miterlimit="10" fill="#C5E0B4"/></g><g clip-path="url(#clip29)"><text fill="#595959" font-family="Calibri,Calibri_MSFontService,sans-serif" font-weight="400" font-size="41" transform="matrix(1 0 0 1 1827.6 1080)">1st Quartile (Lowest Overall Score)</text></g><rect x="1498.5" y="29.5001" width="1148" height="1098" stroke="#D9D9D9" stroke-width="3.4375" stroke-linejoin="round" stroke-miterlimit="10" fill="none"/></g></svg>