<svg width="1139" height="1109" xmlns="http://www.w3.org/2000/svg" xmlns:xlink="http://www.w3.org/1999/xlink" overflow="hidden"><defs><clipPath id="clip0"><rect x="1403" y="81" width="1139" height="1109"/></clipPath><clipPath id="clip1"><rect x="1404" y="82" width="1136" height="1106"/></clipPath><clipPath id="clip2"><rect x="1480" y="132" width="987" height="546"/></clipPath><clipPath id="clip3"><rect x="1404" y="82" width="1136" height="1106"/></clipPath><clipPath id="clip4"><rect x="1480" y="132" width="987" height="546"/></clipPath><clipPath id="clip5"><rect x="1404" y="82" width="1136" height="1106"/></clipPath><clipPath id="clip6"><rect x="1480" y="132" width="987" height="546"/></clipPath><clipPath id="clip7"><rect x="1404" y="82" width="1136" height="1106"/></clipPath><clipPath id="clip8"><rect x="1480" y="132" width="987" height="546"/></clipPath><clipPath id="clip9"><rect x="1404" y="82" width="1136" height="1106"/></clipPath><clipPath id="clip10"><rect x="1480" y="132" width="987" height="546"/></clipPath><clipPath id="clip11"><rect x="1404" y="82" width="1136" height="1106"/></clipPath><clipPath id="clip12"><rect x="1404" y="82" width="1136" height="1106"/></clipPath><clipPath id="clip13"><rect x="1404" y="82" width="1136" height="1106"/></clipPath><clipPath id="clip14"><rect x="1404" y="82" width="1136" height="1106"/></clipPath><clipPath id="clip15"><rect x="1404" y="82" width="1136" height="1106"/></clipPath><clipPath id="clip16"><rect x="1404" y="82" width="1136" height="1106"/></clipPath><clipPath id="clip17"><rect x="1404" y="82" width="1136" height="1106"/></clipPath><clipPath id="clip18"><rect x="1404" y="82" width="1136" height="1106"/></clipPath><clipPath id="clip19"><rect x="1404" y="82" width="1136" height="1106"/></clipPath><clipPath id="clip20"><rect x="1404" y="82" width="1136" height="1106"/></clipPath><clipPath id="clip21"><rect x="1404" y="82" width="1136" height="1106"/></clipPath><clipPath id="clip22"><rect x="1404" y="82" width="1136" height="1106"/></clipPath><clipPath id="clip23"><rect x="1404" y="82" width="1136" height="1106"/></clipPath><clipPath id="clip24"><rect x="1404" y="82" width="1136" height="1106"/></clipPath><clipPath id="clip25"><rect x="1404" y="82" width="1136" height="1106"/></clipPath><clipPath id="clip26"><rect x="1404" y="82" width="1136" height="1106"/></clipPath><clipPath id="clip27"><rect x="1404" y="82" width="1136" height="1106"/></clipPath><clipPath id="clip28"><rect x="1404" y="82" width="1136" height="1106"/></clipPath><clipPath id="clip29"><rect x="1404" y="82" width="1136" height="1106"/></clipPath><clipPath id="clip30"><rect x="1404" y="82" width="1136" height="1106"/></clipPath><clipPath id="clip31"><rect x="1404" y="82" width="1136" height="1106"/></clipPath><clipPath id="clip32"><rect x="1404" y="82" width="1136" height="1106"/></clipPath><clipPath id="clip33"><rect x="1404" y="82" width="1136" height="1106"/></clipPath></defs><g clip-path="url(#clip0)" transform="translate(-1403 -81)"><rect x="1404" y="82.0002" width="1136" height="1106" fill="#FFFFFF"/><g clip-path="url(#clip1)"><path d="M1480.5 674.5 2463.5 674.5" stroke="#BFBFBF" stroke-width="3.4375" stroke-linejoin="round" stroke-miterlimit="10" fill="none" fill-rule="evenodd"/></g><g clip-path="url(#clip2)"><path d="M2012.57 223.5 1969.5 223.5 2056.5 223.5" stroke="#A80084" stroke-width="6.875" stroke-linecap="round" stroke-linejoin="round" stroke-miterlimit="10" fill="none"/></g><g clip-path="url(#clip3)"><path d="M2023.54 223.98C2023.54 230.055 2018.61 234.98 2012.54 234.98 2006.46 234.98 2001.54 230.055 2001.54 223.98 2001.54 217.905 2006.46 212.98 2012.54 212.98 2018.61 212.98 2023.54 217.905 2023.54 223.98Z" stroke="#A80084" stroke-width="3.4375" stroke-linejoin="round" stroke-miterlimit="10" fill="#A80084"/></g><g clip-path="url(#clip4)"><path d="M2092.57 313.5 2040.5 313.5 2145.5 313.5" stroke="#E69800" stroke-width="6.875" stroke-linecap="round" stroke-linejoin="round" stroke-miterlimit="10" fill="none"/></g><g clip-path="url(#clip5)"><path d="M2103.54 313.98C2103.54 320.055 2098.61 324.98 2092.54 324.98 2086.46 324.98 2081.54 320.055 2081.54 313.98 2081.54 307.905 2086.46 302.98 2092.54 302.98 2098.61 302.98 2103.54 307.905 2103.54 313.98Z" stroke="#E69800" stroke-width="3.4375" stroke-linejoin="round" stroke-miterlimit="10" fill="#E69800"/></g><g clip-path="url(#clip6)"><path d="M2159.57 403.5 1998.5 403.5 2321.5 403.5" stroke="#FFEBAF" stroke-width="6.875" stroke-linecap="round" stroke-linejoin="round" stroke-miterlimit="10" fill="none"/></g><g clip-path="url(#clip7)"><path d="M2170.54 403.98C2170.54 410.055 2165.61 414.98 2159.54 414.98 2153.46 414.98 2148.54 410.055 2148.54 403.98 2148.54 397.905 2153.46 392.98 2159.54 392.98 2165.61 392.98 2170.54 397.905 2170.54 403.98Z" stroke="#FFEBAF" stroke-width="3.4375" stroke-linejoin="round" stroke-miterlimit="10" fill="#FFEBAF"/></g><g clip-path="url(#clip8)"><path d="M2238.57 494.5 2099.5 494.5 2377.5 494.5" stroke="#FF73DF" stroke-width="6.875" stroke-linecap="round" stroke-linejoin="round" stroke-miterlimit="10" fill="none"/></g><g clip-path="url(#clip9)"><path d="M2249.54 494.98C2249.54 501.055 2244.61 505.98 2238.54 505.98 2232.46 505.98 2227.54 501.055 2227.54 494.98 2227.54 488.905 2232.46 483.98 2238.54 483.98 2244.61 483.98 2249.54 488.905 2249.54 494.98Z" stroke="#FF73DF" stroke-width="3.4375" stroke-linejoin="round" stroke-miterlimit="10" fill="#FF73DF"/></g><g clip-path="url(#clip10)"><path d="M2238.57 584.5 2099.5 584.5 2377.5 584.5" stroke="#C2C2C2" stroke-width="6.875" stroke-linecap="round" stroke-linejoin="round" stroke-miterlimit="10" fill="none"/></g><g clip-path="url(#clip11)"><path d="M2249.54 584.98C2249.54 591.055 2244.61 595.979 2238.54 595.979 2232.46 595.979 2227.54 591.055 2227.54 584.98 2227.54 578.905 2232.46 573.98 2238.54 573.98 2244.61 573.98 2249.54 578.905 2249.54 584.98Z" stroke="#C2C2C2" stroke-width="3.4375" stroke-linejoin="round" stroke-miterlimit="10" fill="#C2C2C2"/></g><g clip-path="url(#clip12)"><text fill="#595959" font-family="Calibri,Calibri_MSFontService,sans-serif" font-weight="400" font-size="41" transform="matrix(1 0 0 1 1454.46 740)">0.0</text></g><g clip-path="url(#clip13)"><text fill="#595959" font-family="Calibri,Calibri_MSFontService,sans-serif" font-weight="400" font-size="41" transform="matrix(1 0 0 1 1618.34 740)">0.5</text></g><g clip-path="url(#clip14)"><text fill="#595959" font-family="Calibri,Calibri_MSFontService,sans-serif" font-weight="400" font-size="41" transform="matrix(1 0 0 1 1782.23 740)">1.0</text></g><g clip-path="url(#clip15)"><text fill="#595959" font-family="Calibri,Calibri_MSFontService,sans-serif" font-weight="400" font-size="41" transform="matrix(1 0 0 1 1946.11 740)">1.5</text></g><g clip-path="url(#clip16)"><text fill="#595959" font-family="Calibri,Calibri_MSFontService,sans-serif" font-weight="400" font-size="41" transform="matrix(1 0 0 1 2109.99 740)">2.0</text></g><g clip-path="url(#clip17)"><text fill="#595959" font-family="Calibri,Calibri_MSFontService,sans-serif" font-weight="400" font-size="41" transform="matrix(1 0 0 1 2273.88 740)">2.5</text></g><g clip-path="url(#clip18)"><text fill="#595959" font-family="Calibri,Calibri_MSFontService,sans-serif" font-weight="400" font-size="41" transform="matrix(1 0 0 1 2437.76 740)">3.0</text></g><g clip-path="url(#clip19)"><path d="M1709.5 819.5 1797.5 819.5" stroke="#A80084" stroke-width="6.875" stroke-linecap="round" stroke-linejoin="round" stroke-miterlimit="10" fill="none" fill-rule="evenodd"/></g><g clip-path="url(#clip20)"><path d="M1764 819C1764 825.075 1759.07 829.999 1753 829.999 1746.92 829.999 1742 825.075 1742 819 1742 812.925 1746.92 808 1753 808 1759.07 808 1764 812.925 1764 819Z" stroke="#A80084" stroke-width="3.4375" stroke-linejoin="round" stroke-miterlimit="10" fill="#A80084"/></g><g clip-path="url(#clip21)"><text fill="#595959" font-family="Calibri,Calibri_MSFontService,sans-serif" font-weight="400" font-size="41" transform="matrix(1 0 0 1 1807.2 831)">Performance Plan</text></g><g clip-path="url(#clip22)"><path d="M1709.5 897.5 1797.5 897.5" stroke="#E69800" stroke-width="6.875" stroke-linecap="round" stroke-linejoin="round" stroke-miterlimit="10" fill="none" fill-rule="evenodd"/></g><g clip-path="url(#clip23)"><path d="M1764 897C1764 903.075 1759.07 907.999 1753 907.999 1746.92 907.999 1742 903.075 1742 897 1742 890.925 1746.92 886 1753 886 1759.07 886 1764 890.925 1764 897Z" stroke="#E69800" stroke-width="3.4375" stroke-linejoin="round" stroke-miterlimit="10" fill="#E69800"/></g><g clip-path="url(#clip24)"><text fill="#595959" font-family="Calibri,Calibri_MSFontService,sans-serif" font-weight="400" font-size="41" transform="matrix(1 0 0 1 1807.2 909)">Improvement Plan</text></g><g clip-path="url(#clip25)"><path d="M1709.5 974.5 1797.5 974.5" stroke="#FFEBAF" stroke-width="6.875" stroke-linecap="round" stroke-linejoin="round" stroke-miterlimit="10" fill="none" fill-rule="evenodd"/></g><g clip-path="url(#clip26)"><path d="M1764 974C1764 980.075 1759.07 984.999 1753 984.999 1746.92 984.999 1742 980.075 1742 974 1742 967.925 1746.92 963 1753 963 1759.07 963 1764 967.925 1764 974Z" stroke="#FFEBAF" stroke-width="3.4375" stroke-linejoin="round" stroke-miterlimit="10" fill="#FFEBAF"/></g><g clip-path="url(#clip27)"><text fill="#595959" font-family="Calibri,Calibri_MSFontService,sans-serif" font-weight="400" font-size="41" transform="matrix(1 0 0 1 1807.2 986)">Priority Improvement Plan</text></g><g clip-path="url(#clip28)"><path d="M1709.5 1051.5 1797.5 1051.5" stroke="#FF73DF" stroke-width="6.875" stroke-linecap="round" stroke-linejoin="round" stroke-miterlimit="10" fill="none" fill-rule="evenodd"/></g><g clip-path="url(#clip29)"><path d="M1764 1051C1764 1057.07 1759.07 1062 1753 1062 1746.92 1062 1742 1057.07 1742 1051 1742 1044.92 1746.92 1040 1753 1040 1759.07 1040 1764 1044.92 1764 1051Z" stroke="#FF73DF" stroke-width="3.4375" stroke-linejoin="round" stroke-miterlimit="10" fill="#FF73DF"/></g><g clip-path="url(#clip30)"><text fill="#595959" font-family="Calibri,Calibri_MSFontService,sans-serif" font-weight="400" font-size="41" transform="matrix(1 0 0 1 1807.2 1063)">Turnaround Plan</text></g><g clip-path="url(#clip31)"><path d="M1709.5 1129.5 1797.5 1129.5" stroke="#C2C2C2" stroke-width="6.875" stroke-linecap="round" stroke-linejoin="round" stroke-miterlimit="10" fill="none" fill-rule="evenodd"/></g><g clip-path="url(#clip32)"><path d="M1764 1129C1764 1135.07 1759.07 1140 1753 1140 1746.92 1140 1742 1135.07 1742 1129 1742 1122.92 1746.92 1118 1753 1118 1759.07 1118 1764 1122.92 1764 1129Z" stroke="#C2C2C2" stroke-width="3.4375" stroke-linejoin="round" stroke-miterlimit="10" fill="#C2C2C2"/></g><g clip-path="url(#clip33)"><text fill="#595959" font-family="Calibri,Calibri_MSFontService,sans-serif" font-weight="400" font-size="41" transform="matrix(1 0 0 1 1807.2 1141)">Insufficient or No Data</text></g><rect x="1404.5" y="82.5" width="1136" height="1106" stroke="#D9D9D9" stroke-width="3.4375" stroke-linejoin="round" stroke-miterlimit="10" fill="none"/></g></svg>