<svg width="1236" height="1968" xmlns="http://www.w3.org/2000/svg" xmlns:xlink="http://www.w3.org/1999/xlink" overflow="hidden"><defs><clipPath id="clip0"><rect x="-1" y="-1" width="1236" height="1968"/></clipPath><clipPath id="clip1"><rect x="0" y="0" width="1233" height="1965"/></clipPath><clipPath id="clip2"><rect x="0" y="0" width="1233" height="1965"/></clipPath><clipPath id="clip3"><rect x="61" y="356" width="1104" height="701"/></clipPath><clipPath id="clip4"><rect x="0" y="0" width="1233" height="1965"/></clipPath><clipPath id="clip5"><rect x="61" y="356" width="1104" height="701"/></clipPath><clipPath id="clip6"><rect x="0" y="0" width="1233" height="1965"/></clipPath><clipPath id="clip7"><rect x="61" y="356" width="1104" height="701"/></clipPath><clipPath id="clip8"><rect x="0" y="0" width="1233" height="1965"/></clipPath><clipPath id="clip9"><rect x="61" y="356" width="1104" height="701"/></clipPath><clipPath id="clip10"><rect x="0" y="0" width="1233" height="1965"/></clipPath><clipPath id="clip11"><rect x="0" y="0" width="1233" height="1965"/></clipPath><clipPath id="clip12"><rect x="0" y="0" width="1233" height="1965"/></clipPath><clipPath id="clip13"><rect x="0" y="0" width="1233" height="1965"/></clipPath><clipPath id="clip14"><rect x="0" y="0" width="1233" height="1965"/></clipPath><clipPath id="clip15"><rect x="0" y="0" width="1233" height="1965"/></clipPath><clipPath id="clip16"><rect x="0" y="0" width="1233" height="1965"/></clipPath><clipPath id="clip17"><rect x="0" y="0" width="1233" height="1965"/></clipPath><clipPath id="clip18"><rect x="0" y="0" width="1233" height="1965"/></clipPath><clipPath id="clip19"><rect x="0" y="0" width="1233" height="1965"/></clipPath><clipPath id="clip20"><rect x="0" y="0" width="1233" height="1965"/></clipPath><clipPath id="clip21"><rect x="0" y="0" width="1233" height="1965"/></clipPath><clipPath id="clip22"><rect x="0" y="0" width="1233" height="1965"/></clipPath><clipPath id="clip23"><rect x="0" y="0" width="1233" height="1965"/></clipPath><clipPath id="clip24"><rect x="0" y="0" width="1233" height="1965"/></clipPath><clipPath id="clip25"><rect x="0" y="0" width="1233" height="1965"/></clipPath><clipPath id="clip26"><rect x="0" y="0" width="1233" height="1965"/></clipPath><clipPath id="clip27"><rect x="0" y="0" width="1233" height="1965"/></clipPath><clipPath id="clip28"><rect x="0" y="0" width="1233" height="1965"/></clipPath><clipPath id="clip29"><rect x="0" y="0" width="1233" height="1965"/></clipPath><clipPath id="clip30"><rect x="0" y="0" width="1233" height="1965"/></clipPath><clipPath id="clip31"><rect x="0" y="0" width="1233" height="1965"/></clipPath><clipPath id="clip32"><rect x="0" y="0" width="1233" height="1965"/></clipPath><clipPath id="clip33"><rect x="0" y="0" width="1233" height="1965"/></clipPath><clipPath id="clip34"><rect x="0" y="0" width="1233" height="1965"/></clipPath><clipPath id="clip35"><rect x="0" y="0" width="1233" height="1965"/></clipPath><clipPath id="clip36"><rect x="0" y="0" width="1233" height="1965"/></clipPath><clipPath id="clip37"><rect x="0" y="0" width="1233" height="1965"/></clipPath><clipPath id="clip38"><rect x="0" y="0" width="1233" height="1965"/></clipPath><clipPath id="clip39"><rect x="0" y="0" width="1233" height="1965"/></clipPath></defs><g clip-path="url(#clip0)" transform="translate(1 1)"><rect x="0" y="0" width="1233" height="1965" fill="#FFFFFF"/><g clip-path="url(#clip1)"><rect x="61.5" y="356.5" width="1101" height="698" stroke="#385723" stroke-width="3.4375" stroke-linejoin="round" stroke-miterlimit="10" fill="none"/></g><g clip-path="url(#clip2)"><path d="M61.5 1054.5 1162.5 1054.5" stroke="#BFBFBF" stroke-width="3.4375" stroke-linejoin="round" stroke-miterlimit="10" fill="none" fill-rule="evenodd"/></g><g clip-path="url(#clip3)"><path d="M854.528 433.5 757.5 433.5 951.5 433.5" stroke="#993404" stroke-width="6.875" stroke-linecap="round" stroke-linejoin="round" stroke-miterlimit="10" fill="none"/></g><g clip-path="url(#clip4)"><path d="M865.499 433.5C865.499 439.575 860.575 444.499 854.5 444.499 848.425 444.499 843.5 439.575 843.5 433.5 843.5 427.425 848.425 422.5 854.5 422.5 860.575 422.5 865.499 427.425 865.499 433.5Z" stroke="#993404" stroke-width="3.4375" stroke-linejoin="round" stroke-miterlimit="10" fill="#993404"/></g><g clip-path="url(#clip5)"><path d="M743.525 588.5 644.5 588.5 841.5 588.5" stroke="#D95F0E" stroke-width="6.875" stroke-linecap="round" stroke-linejoin="round" stroke-miterlimit="10" fill="none"/></g><g clip-path="url(#clip6)"><path d="M754.499 588.5C754.499 594.575 749.575 599.499 743.5 599.499 737.425 599.499 732.5 594.575 732.5 588.5 732.5 582.425 737.425 577.5 743.5 577.5 749.575 577.5 754.499 582.425 754.499 588.5Z" stroke="#D95F0E" stroke-width="3.4375" stroke-linejoin="round" stroke-miterlimit="10" fill="#D95F0E"/></g><g clip-path="url(#clip7)"><path d="M697.523 744.5 629.5 744.5 764.5 744.5" stroke="#FE9929" stroke-width="6.875" stroke-linecap="round" stroke-linejoin="round" stroke-miterlimit="10" fill="none"/></g><g clip-path="url(#clip8)"><path d="M708.499 744.5C708.499 750.575 703.575 755.499 697.5 755.499 691.425 755.499 686.5 750.575 686.5 744.5 686.5 738.425 691.425 733.5 697.5 733.5 703.575 733.5 708.499 738.425 708.499 744.5Z" stroke="#FE9929" stroke-width="3.4375" stroke-linejoin="round" stroke-miterlimit="10" fill="#FE9929"/></g><g clip-path="url(#clip9)"><path d="M688.523 899.5 620.5 899.5 757.5 899.5" stroke="#FED98E" stroke-width="6.875" stroke-linecap="round" stroke-linejoin="round" stroke-miterlimit="10" fill="none"/></g><g clip-path="url(#clip10)"><path d="M699.499 899.5C699.499 905.575 694.575 910.499 688.5 910.499 682.425 910.499 677.5 905.575 677.5 899.5 677.5 893.425 682.425 888.5 688.5 888.5 694.575 888.5 699.499 893.425 699.499 899.5Z" stroke="#FED98E" stroke-width="3.4375" stroke-linejoin="round" stroke-miterlimit="10" fill="#FED98E"/></g><g clip-path="url(#clip11)"><text fill="#595959" font-family="Calibri,Calibri_MSFontService,sans-serif" font-weight="400" font-size="41" transform="matrix(1 0 0 1 34.9759 1119)">0.0</text></g><g clip-path="url(#clip12)"><text fill="#595959" font-family="Calibri,Calibri_MSFontService,sans-serif" font-weight="400" font-size="41" transform="matrix(1 0 0 1 218.483 1119)">0.5</text></g><g clip-path="url(#clip13)"><text fill="#595959" font-family="Calibri,Calibri_MSFontService,sans-serif" font-weight="400" font-size="41" transform="matrix(1 0 0 1 401.99 1119)">1.0</text></g><g clip-path="url(#clip14)"><text fill="#595959" font-family="Calibri,Calibri_MSFontService,sans-serif" font-weight="400" font-size="41" transform="matrix(1 0 0 1 585.497 1119)">1.5</text></g><g clip-path="url(#clip15)"><text fill="#595959" font-family="Calibri,Calibri_MSFontService,sans-serif" font-weight="400" font-size="41" transform="matrix(1 0 0 1 769.004 1119)">2.0</text></g><g clip-path="url(#clip16)"><text fill="#595959" font-family="Calibri,Calibri_MSFontService,sans-serif" font-weight="400" font-size="41" transform="matrix(1 0 0 1 952.512 1119)">2.5</text></g><g clip-path="url(#clip17)"><text fill="#595959" font-family="Calibri,Calibri_MSFontService,sans-serif" font-weight="400" font-size="41" transform="matrix(1 0 0 1 1136.02 1119)">3.0</text></g><g clip-path="url(#clip18)"><text fill="#595959" font-family="Calibri,Calibri_MSFontService,sans-serif" font-weight="400" font-size="46" transform="matrix(1 0 0 1 184.265 1213)">School</text></g><g clip-path="url(#clip19)"><text fill="#595959" font-family="Calibri,Calibri_MSFontService,sans-serif" font-weight="400" font-size="46" transform="matrix(1 0 0 1 307.671 1213)">-</text></g><g clip-path="url(#clip20)"><text fill="#595959" font-family="Calibri,Calibri_MSFontService,sans-serif" font-weight="400" font-size="46" transform="matrix(1 0 0 1 321.696 1213)">Level Teacher Mobility/Attrition Rate</text></g><g clip-path="url(#clip21)"><text fill="#595959" font-family="Calibri,Calibri_MSFontService,sans-serif" font-weight="400" font-size="46" transform="matrix(1 0 0 1 290.919 1269)">___________________________</text></g><g clip-path="url(#clip22)"><text fill="#595959" font-family="Calibri,Calibri_MSFontService,sans-serif" font-weight="400" font-size="46" transform="matrix(1 0 0 1 326.05 1380)">Latinx Students (%) by School</text></g><g clip-path="url(#clip23)"><text fill="#595959" font-family="Calibri,Calibri_MSFontService,sans-serif" font-weight="400" font-size="64" transform="matrix(1 0 0 1 146.666 95)">Comparison of School</text></g><g clip-path="url(#clip24)"><text fill="#595959" font-family="Calibri,Calibri_MSFontService,sans-serif" font-weight="400" font-size="64" transform="matrix(1 0 0 1 715.389 95)">-</text></g><g clip-path="url(#clip25)"><text fill="#595959" font-family="Calibri,Calibri_MSFontService,sans-serif" font-weight="400" font-size="64" transform="matrix(1 0 0 1 735.029 95)">Level Teacher </text></g><g clip-path="url(#clip26)"><text fill="#595959" font-family="Calibri,Calibri_MSFontService,sans-serif" font-weight="400" font-size="64" transform="matrix(1 0 0 1 203.248 173)">Mobility/Attrition Rate (per 100 </text></g><g clip-path="url(#clip27)"><text fill="#595959" font-family="Calibri,Calibri_MSFontService,sans-serif" font-weight="400" font-size="64" transform="matrix(1 0 0 1 181.752 252)">students) and Latinx Students (%)</text></g><g clip-path="url(#clip28)"><path d="M290.5 1522.5 378.5 1522.5" stroke="#993404" stroke-width="6.875" stroke-linecap="round" stroke-linejoin="round" stroke-miterlimit="10" fill="none" fill-rule="evenodd"/></g><g clip-path="url(#clip29)"><path d="M345 1522C345 1528.07 340.075 1533 334 1533 327.925 1533 323 1528.07 323 1522 323 1515.92 327.925 1511 334 1511 340.075 1511 345 1515.92 345 1522Z" stroke="#993404" stroke-width="3.4375" stroke-linejoin="round" stroke-miterlimit="10" fill="#993404"/></g><g clip-path="url(#clip30)"><text fill="#595959" font-family="Calibri,Calibri_MSFontService,sans-serif" font-weight="400" font-size="41" transform="matrix(1 0 0 1 388.068 1534)">4th Quartile (Highest Percentage)</text></g><g clip-path="url(#clip31)"><path d="M290.5 1635.5 378.5 1635.5" stroke="#D95F0E" stroke-width="6.875" stroke-linecap="round" stroke-linejoin="round" stroke-miterlimit="10" fill="none" fill-rule="evenodd"/></g><g clip-path="url(#clip32)"><path d="M345 1635C345 1641.07 340.075 1646 334 1646 327.925 1646 323 1641.07 323 1635 323 1628.92 327.925 1624 334 1624 340.075 1624 345 1628.92 345 1635Z" stroke="#D95F0E" stroke-width="3.4375" stroke-linejoin="round" stroke-miterlimit="10" fill="#D95F0E"/></g><g clip-path="url(#clip33)"><text fill="#595959" font-family="Calibri,Calibri_MSFontService,sans-serif" font-weight="400" font-size="41" transform="matrix(1 0 0 1 388.068 1647)">3rd Quartile</text></g><g clip-path="url(#clip34)"><path d="M290.5 1747.5 378.5 1747.5" stroke="#FE9929" stroke-width="6.875" stroke-linecap="round" stroke-linejoin="round" stroke-miterlimit="10" fill="none" fill-rule="evenodd"/></g><g clip-path="url(#clip35)"><path d="M345 1747C345 1753.07 340.075 1758 334 1758 327.925 1758 323 1753.07 323 1747 323 1740.92 327.925 1736 334 1736 340.075 1736 345 1740.92 345 1747Z" stroke="#FE9929" stroke-width="3.4375" stroke-linejoin="round" stroke-miterlimit="10" fill="#FE9929"/></g><g clip-path="url(#clip36)"><text fill="#595959" font-family="Calibri,Calibri_MSFontService,sans-serif" font-weight="400" font-size="41" transform="matrix(1 0 0 1 388.068 1759)">2nd Quartile</text></g><g clip-path="url(#clip37)"><path d="M290.5 1859.5 378.5 1859.5" stroke="#FED98E" stroke-width="6.875" stroke-linecap="round" stroke-linejoin="round" stroke-miterlimit="10" fill="none" fill-rule="evenodd"/></g><g clip-path="url(#clip38)"><path d="M345 1859.5C345 1865.31 340.075 1870.02 334 1870.02 327.925 1870.02 323 1865.31 323 1859.5 323 1853.69 327.925 1848.98 334 1848.98 340.075 1848.98 345 1853.69 345 1859.5Z" stroke="#FED98E" stroke-width="3.4375" stroke-linejoin="round" stroke-miterlimit="10" fill="#FED98E"/></g><g clip-path="url(#clip39)"><text fill="#595959" font-family="Calibri,Calibri_MSFontService,sans-serif" font-weight="400" font-size="41" transform="matrix(1 0 0 1 388.068 1872)">1st Quartile (Lowest Percentage)</text></g><rect x="0.499836" y="0.499836" width="1233" height="1965" stroke="#D9D9D9" stroke-width="3.4375" stroke-linejoin="round" stroke-miterlimit="10" fill="none"/></g></svg>
