<svg width="1234" height="1857" xmlns="http://www.w3.org/2000/svg" xmlns:xlink="http://www.w3.org/1999/xlink" overflow="hidden"><defs><clipPath id="clip0"><rect x="1506" y="28" width="1234" height="1857"/></clipPath><clipPath id="clip1"><rect x="1506" y="28" width="1231" height="1854"/></clipPath><clipPath id="clip2"><rect x="1506" y="28" width="1231" height="1854"/></clipPath><clipPath id="clip3"><rect x="1567" y="365" width="1103" height="661"/></clipPath><clipPath id="clip4"><rect x="1506" y="28" width="1231" height="1854"/></clipPath><clipPath id="clip5"><rect x="1567" y="365" width="1103" height="661"/></clipPath><clipPath id="clip6"><rect x="1506" y="28" width="1231" height="1854"/></clipPath><clipPath id="clip7"><rect x="1567" y="365" width="1103" height="661"/></clipPath><clipPath id="clip8"><rect x="1506" y="28" width="1231" height="1854"/></clipPath><clipPath id="clip9"><rect x="1567" y="365" width="1103" height="661"/></clipPath><clipPath id="clip10"><rect x="1506" y="28" width="1231" height="1854"/></clipPath><clipPath id="clip11"><rect x="1506" y="28" width="1231" height="1854"/></clipPath><clipPath id="clip12"><rect x="1506" y="28" width="1231" height="1854"/></clipPath><clipPath id="clip13"><rect x="1506" y="28" width="1231" height="1854"/></clipPath><clipPath id="clip14"><rect x="1506" y="28" width="1231" height="1854"/></clipPath><clipPath id="clip15"><rect x="1506" y="28" width="1231" height="1854"/></clipPath><clipPath id="clip16"><rect x="1506" y="28" width="1231" height="1854"/></clipPath><clipPath id="clip17"><rect x="1506" y="28" width="1231" height="1854"/></clipPath><clipPath id="clip18"><rect x="1506" y="28" width="1231" height="1854"/></clipPath><clipPath id="clip19"><rect x="1506" y="28" width="1231" height="1854"/></clipPath><clipPath id="clip20"><rect x="1506" y="28" width="1231" height="1854"/></clipPath><clipPath id="clip21"><rect x="1506" y="28" width="1231" height="1854"/></clipPath><clipPath id="clip22"><rect x="1506" y="28" width="1231" height="1854"/></clipPath><clipPath id="clip23"><rect x="1506" y="28" width="1231" height="1854"/></clipPath><clipPath id="clip24"><rect x="1506" y="28" width="1231" height="1854"/></clipPath><clipPath id="clip25"><rect x="1506" y="28" width="1231" height="1854"/></clipPath><clipPath id="clip26"><rect x="1506" y="28" width="1231" height="1854"/></clipPath><clipPath id="clip27"><rect x="1506" y="28" width="1231" height="1854"/></clipPath><clipPath id="clip28"><rect x="1506" y="28" width="1231" height="1854"/></clipPath><clipPath id="clip29"><rect x="1506" y="28" width="1231" height="1854"/></clipPath><clipPath id="clip30"><rect x="1506" y="28" width="1231" height="1854"/></clipPath><clipPath id="clip31"><rect x="1506" y="28" width="1231" height="1854"/></clipPath><clipPath id="clip32"><rect x="1506" y="28" width="1231" height="1854"/></clipPath><clipPath id="clip33"><rect x="1506" y="28" width="1231" height="1854"/></clipPath><clipPath id="clip34"><rect x="1506" y="28" width="1231" height="1854"/></clipPath><clipPath id="clip35"><rect x="1506" y="28" width="1231" height="1854"/></clipPath><clipPath id="clip36"><rect x="1506" y="28" width="1231" height="1854"/></clipPath><clipPath id="clip37"><rect x="1506" y="28" width="1231" height="1854"/></clipPath><clipPath id="clip38"><rect x="1506" y="28" width="1231" height="1854"/></clipPath><clipPath id="clip39"><rect x="1506" y="28" width="1231" height="1854"/></clipPath></defs><g clip-path="url(#clip0)" transform="translate(-1506 -28)"><rect x="1507" y="28.9999" width="1231" height="1854" fill="#FFFFFF"/><g clip-path="url(#clip1)"><rect x="1567.5" y="365.5" width="1099" height="658" stroke="#385723" stroke-width="3.4375" stroke-linejoin="round" stroke-miterlimit="10" fill="none"/></g><g clip-path="url(#clip2)"><path d="M1567.5 1023.5 2666.5 1023.5" stroke="#BFBFBF" stroke-width="3.4375" stroke-linejoin="round" stroke-miterlimit="10" fill="none" fill-rule="evenodd"/></g><g clip-path="url(#clip3)"><path d="M2301.58 438.5 2219.5 438.5 2383.5 438.5" stroke="#993404" stroke-width="6.875" stroke-linecap="round" stroke-linejoin="round" stroke-miterlimit="10" fill="none"/></g><g clip-path="url(#clip4)"><path d="M2312.23 438.134C2312.23 444.209 2307.31 449.133 2301.23 449.133 2295.16 449.133 2290.23 444.209 2290.23 438.134 2290.23 432.059 2295.16 427.134 2301.23 427.134 2307.31 427.134 2312.23 432.059 2312.23 438.134Z" stroke="#993404" stroke-width="3.4375" stroke-linejoin="round" stroke-miterlimit="10" fill="#993404"/></g><g clip-path="url(#clip5)"><path d="M2304.58 584.5 2226.5 584.5 2382.5 584.5" stroke="#D95F0E" stroke-width="6.875" stroke-linecap="round" stroke-linejoin="round" stroke-miterlimit="10" fill="none"/></g><g clip-path="url(#clip6)"><path d="M2315.23 584.134C2315.23 590.208 2310.31 595.133 2304.23 595.133 2298.16 595.133 2293.23 590.208 2293.23 584.134 2293.23 578.059 2298.16 573.134 2304.23 573.134 2310.31 573.134 2315.23 578.059 2315.23 584.134Z" stroke="#D95F0E" stroke-width="3.4375" stroke-linejoin="round" stroke-miterlimit="10" fill="#D95F0E"/></g><g clip-path="url(#clip7)"><path d="M2298.58 730.5 2226.5 730.5 2370.5 730.5" stroke="#FE9929" stroke-width="6.875" stroke-linecap="round" stroke-linejoin="round" stroke-miterlimit="10" fill="none"/></g><g clip-path="url(#clip8)"><path d="M2309.23 730.134C2309.23 736.209 2304.31 741.133 2298.23 741.133 2292.16 741.133 2287.23 736.209 2287.23 730.134 2287.23 724.059 2292.16 719.134 2298.23 719.134 2304.31 719.134 2309.23 724.059 2309.23 730.134Z" stroke="#FE9929" stroke-width="3.4375" stroke-linejoin="round" stroke-miterlimit="10" fill="#FE9929"/></g><g clip-path="url(#clip9)"><path d="M2366.58 876.5 2203.5 876.5 2529.5 876.5" stroke="#FED98E" stroke-width="6.875" stroke-linecap="round" stroke-linejoin="round" stroke-miterlimit="10" fill="none"/></g><g clip-path="url(#clip10)"><path d="M2377.23 876.134C2377.23 882.209 2372.31 887.133 2366.23 887.133 2360.16 887.133 2355.23 882.209 2355.23 876.134 2355.23 870.059 2360.16 865.134 2366.23 865.134 2372.31 865.134 2377.23 870.059 2377.23 876.134Z" stroke="#FED98E" stroke-width="3.4375" stroke-linejoin="round" stroke-miterlimit="10" fill="#FED98E"/></g><g clip-path="url(#clip11)"><text fill="#595959" font-family="Calibri,Calibri_MSFontService,sans-serif" font-weight="400" font-size="41" transform="matrix(1 0 0 1 1541.61 1088)">0.0</text></g><g clip-path="url(#clip12)"><text fill="#595959" font-family="Calibri,Calibri_MSFontService,sans-serif" font-weight="400" font-size="41" transform="matrix(1 0 0 1 1724.8 1088)">0.5</text></g><g clip-path="url(#clip13)"><text fill="#595959" font-family="Calibri,Calibri_MSFontService,sans-serif" font-weight="400" font-size="41" transform="matrix(1 0 0 1 1907.99 1088)">1.0</text></g><g clip-path="url(#clip14)"><text fill="#595959" font-family="Calibri,Calibri_MSFontService,sans-serif" font-weight="400" font-size="41" transform="matrix(1 0 0 1 2091.19 1088)">1.5</text></g><g clip-path="url(#clip15)"><text fill="#595959" font-family="Calibri,Calibri_MSFontService,sans-serif" font-weight="400" font-size="41" transform="matrix(1 0 0 1 2274.38 1088)">2.0</text></g><g clip-path="url(#clip16)"><text fill="#595959" font-family="Calibri,Calibri_MSFontService,sans-serif" font-weight="400" font-size="41" transform="matrix(1 0 0 1 2457.58 1088)">2.5</text></g><g clip-path="url(#clip17)"><text fill="#595959" font-family="Calibri,Calibri_MSFontService,sans-serif" font-weight="400" font-size="41" transform="matrix(1 0 0 1 2640.77 1088)">3.0</text></g><g clip-path="url(#clip18)"><text fill="#595959" font-family="Calibri,Calibri_MSFontService,sans-serif" font-weight="400" font-size="46" transform="matrix(1 0 0 1 1690.71 1176)">School</text></g><g clip-path="url(#clip19)"><text fill="#595959" font-family="Calibri,Calibri_MSFontService,sans-serif" font-weight="400" font-size="46" transform="matrix(1 0 0 1 1814.11 1176)">-</text></g><g clip-path="url(#clip20)"><text fill="#595959" font-family="Calibri,Calibri_MSFontService,sans-serif" font-weight="400" font-size="46" transform="matrix(1 0 0 1 1828.14 1176)">Level Teacher Mobility/Attrition Rate</text></g><g clip-path="url(#clip21)"><text fill="#595959" font-family="Calibri,Calibri_MSFontService,sans-serif" font-weight="400" font-size="46" transform="matrix(1 0 0 1 1797.36 1232)">___________________________</text></g><g clip-path="url(#clip22)"><text fill="#595959" font-family="Calibri,Calibri_MSFontService,sans-serif" font-weight="400" font-size="46" transform="matrix(1 0 0 1 1832.52 1343)">Latinx Students (%) by School</text></g><g clip-path="url(#clip23)"><text fill="#595959" font-family="Calibri,Calibri_MSFontService,sans-serif" font-weight="400" font-size="64" transform="matrix(1 0 0 1 1652.35 124)">Comparison of School</text></g><g clip-path="url(#clip24)"><text fill="#595959" font-family="Calibri,Calibri_MSFontService,sans-serif" font-weight="400" font-size="64" transform="matrix(1 0 0 1 2221.07 124)">-</text></g><g clip-path="url(#clip25)"><text fill="#595959" font-family="Calibri,Calibri_MSFontService,sans-serif" font-weight="400" font-size="64" transform="matrix(1 0 0 1 2240.71 124)">Level Teacher </text></g><g clip-path="url(#clip26)"><text fill="#595959" font-family="Calibri,Calibri_MSFontService,sans-serif" font-weight="400" font-size="64" transform="matrix(1 0 0 1 1710.05 202)">Mobility/Attrition Rate (per 100 </text></g><g clip-path="url(#clip27)"><text fill="#595959" font-family="Calibri,Calibri_MSFontService,sans-serif" font-weight="400" font-size="64" transform="matrix(1 0 0 1 1687.43 281)">students) and Latinx Students (%)</text></g><g clip-path="url(#clip28)"><path d="M1796.5 1465.5 1884.5 1465.5" stroke="#993404" stroke-width="6.875" stroke-linecap="round" stroke-linejoin="round" stroke-miterlimit="10" fill="none" fill-rule="evenodd"/></g><g clip-path="url(#clip29)"><path d="M1851 1465C1851 1471.07 1846.07 1476 1840 1476 1833.92 1476 1829 1471.07 1829 1465 1829 1458.92 1833.92 1454 1840 1454 1846.07 1454 1851 1458.92 1851 1465Z" stroke="#993404" stroke-width="3.4375" stroke-linejoin="round" stroke-miterlimit="10" fill="#993404"/></g><g clip-path="url(#clip30)"><text fill="#595959" font-family="Calibri,Calibri_MSFontService,sans-serif" font-weight="400" font-size="41" transform="matrix(1 0 0 1 1893.76 1477)">4th Quartile (Highest Percentage)</text></g><g clip-path="url(#clip31)"><path d="M1796.5 1571.5 1884.5 1571.5" stroke="#D95F0E" stroke-width="6.875" stroke-linecap="round" stroke-linejoin="round" stroke-miterlimit="10" fill="none" fill-rule="evenodd"/></g><g clip-path="url(#clip32)"><path d="M1851 1571C1851 1577.07 1846.07 1582 1840 1582 1833.92 1582 1829 1577.07 1829 1571 1829 1564.92 1833.92 1560 1840 1560 1846.07 1560 1851 1564.92 1851 1571Z" stroke="#D95F0E" stroke-width="3.4375" stroke-linejoin="round" stroke-miterlimit="10" fill="#D95F0E"/></g><g clip-path="url(#clip33)"><text fill="#595959" font-family="Calibri,Calibri_MSFontService,sans-serif" font-weight="400" font-size="41" transform="matrix(1 0 0 1 1893.76 1583)">3rd Quartile</text></g><g clip-path="url(#clip34)"><path d="M1796.5 1677.5 1884.5 1677.5" stroke="#FE9929" stroke-width="6.875" stroke-linecap="round" stroke-linejoin="round" stroke-miterlimit="10" fill="none" fill-rule="evenodd"/></g><g clip-path="url(#clip35)"><path d="M1851 1677C1851 1683.07 1846.07 1688 1840 1688 1833.92 1688 1829 1683.07 1829 1677 1829 1670.92 1833.92 1666 1840 1666 1846.07 1666 1851 1670.92 1851 1677Z" stroke="#FE9929" stroke-width="3.4375" stroke-linejoin="round" stroke-miterlimit="10" fill="#FE9929"/></g><g clip-path="url(#clip36)"><text fill="#595959" font-family="Calibri,Calibri_MSFontService,sans-serif" font-weight="400" font-size="41" transform="matrix(1 0 0 1 1893.76 1689)">2nd Quartile</text></g><g clip-path="url(#clip37)"><path d="M1796.5 1783.5 1884.5 1783.5" stroke="#FED98E" stroke-width="6.875" stroke-linecap="round" stroke-linejoin="round" stroke-miterlimit="10" fill="none" fill-rule="evenodd"/></g><g clip-path="url(#clip38)"><path d="M1851 1783C1851 1789.07 1846.07 1794 1840 1794 1833.92 1794 1829 1789.07 1829 1783 1829 1776.92 1833.92 1772 1840 1772 1846.07 1772 1851 1776.92 1851 1783Z" stroke="#FED98E" stroke-width="3.4375" stroke-linejoin="round" stroke-miterlimit="10" fill="#FED98E"/></g><g clip-path="url(#clip39)"><text fill="#595959" font-family="Calibri,Calibri_MSFontService,sans-serif" font-weight="400" font-size="41" transform="matrix(1 0 0 1 1893.76 1795)">1st Quartile (Lowest Percentage)</text></g><rect x="1507.5" y="29.5001" width="1231" height="1854" stroke="#D9D9D9" stroke-width="3.4375" stroke-linejoin="round" stroke-miterlimit="10" fill="none"/></g></svg>