<?xml version="1.0" encoding="UTF-8"?>
<svg width="100pt" height="100pt" version="1.1" viewBox="0 0 100 100" xmlns="http://www.w3.org/2000/svg">
 <g>
  <path d="m55.441 43.316-2.668-0.4375-1.1523-2.4414c-0.25391-0.53906-0.78906-0.88672-1.3867-0.89453-0.53516-0.003907-1.1445 0.31641-1.4141 0.84766l-1.2383 2.4023-2.6797 0.33984c-0.58984 0.074219-1.0859 0.48047-1.2812 1.043-0.19531 0.5625-0.050782 1.1875 0.36719 1.6094l1.9023 1.918-0.50391 2.6562c-0.27344 1.2227 1.1367 2.2891 2.2383 1.6875l2.4141-1.2148c0.51953 0.22266 2.5352 1.5781 3.1211 1.4922 0.92188 0.023437 1.707-0.88281 1.543-1.8008l-0.41016-2.6719 1.9688-1.8516c0.94141-0.83203 0.42578-2.5195-0.82031-2.6797zm-3.8906 2.8164c-0.48828 0.4375-0.56641 1.1172-0.41797 1.7266-0.52344-0.34766-1.1875-0.50781-1.7656-0.19531l-0.32031 0.16016c0.16797-0.60547 0.11719-1.2891-0.35547-1.7422l-0.25-0.25391 0.35547-0.046875c0.65625-0.066406 1.1172-0.57031 1.3555-1.1523l0.15234 0.32422c0.26562 0.60156 0.88672 0.88281 1.5156 0.93359l-0.26172 0.24609z"/>
  <path d="m35.672 55.094h-10.512c-0.86328 0-1.5625 0.69922-1.5625 1.5625v8.4805c0 0.86328 0.69922 1.5625 1.5625 1.5625h10.512c0.86328 0 1.5625-0.69922 1.5625-1.5625v-8.4805c0-0.86328-0.69922-1.5625-1.5625-1.5625zm-1.5625 8.4805h-7.3867v-5.3555h7.3867z"/>
  <path d="m75.203 55.094h-10.512c-0.86328 0-1.5625 0.69922-1.5625 1.5625v8.4805c0 0.86328 0.69922 1.5625 1.5625 1.5625h10.512c0.86328 0 1.5625-0.69922 1.5625-1.5625v-8.4805c0-0.86328-0.69922-1.5625-1.5625-1.5625zm-1.5625 8.4805h-7.3867v-5.3555h7.3867z"/>
  <path d="m7.3398 82.633c26.262-0.003906 59.055 0 85.316 0 2.0312-0.046874 2.0781-3.0781 0-3.125h-1.1523v-10.371c0-22.23-17.672-40.398-39.703-41.227v-2.5039c0.87109 0.29297 1.9492 0.50781 3.3477 0.50781 4.7266 0.070313 4.4883-1.7695 8.1094-2.1523 0.82813-0.046875 1.4766-0.73047 1.4766-1.5586v-7.2305c-0.22656-2.9492-4.9297-0.89062-5.7539-0.33984-0.91406 0.5-1.7031 0.92969-3.8125 0.92969-1.9688 0.003906-2.9648-0.51172-3.3633-0.81641v-0.54688c-0.027344-2.0273-3.0898-2.0742-3.125 0v13.711c-22.031 0.82422-39.703 18.996-39.703 41.227v10.371h-1.6367c-2.0117 0.003907-2.0859 3.1016 0 3.125zm37.844-3.125v-14.203c0-2.7891 2.2656-5.0547 5.0547-5.0547 2.7891 0 5.0547 2.2695 5.0547 5.0547v14.203zm13.234 0v-14.203c-0.38281-10.828-15.977-10.824-16.359 0v14.203h-25.27v-10.371c0-18.445 15.008-33.453 33.453-33.453 18.445 0 33.453 15.008 33.453 33.453v10.371zm-3.2695-60.82c3.7461-0.03125 4.3281-0.95312 6.4609-1.8516v3.9922c-2.9453 0.63672-2.9102 1.9922-6.457 1.9609-2.0039 0-2.9727-0.52344-3.3516-0.80078v-3.8125c0.87109 0.29297 1.9492 0.50781 3.3477 0.50781zm-43.047 50.449c2.0977-50.602 74.191-50.578 76.277 0v10.371h-1.5625v-10.371c0-20.168-16.406-36.578-36.578-36.578-20.168 0-36.578 16.41-36.578 36.578v10.371h-1.5625v-10.371z"/>
  <path d="m95.051 84.234h-90.102c-0.86328 0-1.5625 0.69922-1.5625 1.5625s0.69922 1.5625 1.5625 1.5625h90.102c2.0195-0.023437 2.082-3.0859 0-3.125z"/>
 </g>
</svg>
