<svg width="1151" height="1099" xmlns="http://www.w3.org/2000/svg" xmlns:xlink="http://www.w3.org/1999/xlink" overflow="hidden"><defs><clipPath id="clip0"><rect x="1417" y="82" width="1151" height="1099"/></clipPath><clipPath id="clip1"><rect x="1417" y="83" width="1148" height="1095"/></clipPath><clipPath id="clip2"><rect x="1494" y="133" width="998" height="535"/></clipPath><clipPath id="clip3"><rect x="1417" y="83" width="1148" height="1095"/></clipPath><clipPath id="clip4"><rect x="1494" y="133" width="998" height="535"/></clipPath><clipPath id="clip5"><rect x="1417" y="83" width="1148" height="1095"/></clipPath><clipPath id="clip6"><rect x="1494" y="133" width="998" height="535"/></clipPath><clipPath id="clip7"><rect x="1417" y="83" width="1148" height="1095"/></clipPath><clipPath id="clip8"><rect x="1494" y="133" width="998" height="535"/></clipPath><clipPath id="clip9"><rect x="1417" y="83" width="1148" height="1095"/></clipPath><clipPath id="clip10"><rect x="1494" y="133" width="998" height="535"/></clipPath><clipPath id="clip11"><rect x="1417" y="83" width="1148" height="1095"/></clipPath><clipPath id="clip12"><rect x="1417" y="83" width="1148" height="1095"/></clipPath><clipPath id="clip13"><rect x="1417" y="83" width="1148" height="1095"/></clipPath><clipPath id="clip14"><rect x="1417" y="83" width="1148" height="1095"/></clipPath><clipPath id="clip15"><rect x="1417" y="83" width="1148" height="1095"/></clipPath><clipPath id="clip16"><rect x="1417" y="83" width="1148" height="1095"/></clipPath><clipPath id="clip17"><rect x="1417" y="83" width="1148" height="1095"/></clipPath><clipPath id="clip18"><rect x="1417" y="83" width="1148" height="1095"/></clipPath><clipPath id="clip19"><rect x="1417" y="83" width="1148" height="1095"/></clipPath><clipPath id="clip20"><rect x="1417" y="83" width="1148" height="1095"/></clipPath><clipPath id="clip21"><rect x="1417" y="83" width="1148" height="1095"/></clipPath><clipPath id="clip22"><rect x="1417" y="83" width="1148" height="1095"/></clipPath><clipPath id="clip23"><rect x="1417" y="83" width="1148" height="1095"/></clipPath><clipPath id="clip24"><rect x="1417" y="83" width="1148" height="1095"/></clipPath><clipPath id="clip25"><rect x="1417" y="83" width="1148" height="1095"/></clipPath><clipPath id="clip26"><rect x="1417" y="83" width="1148" height="1095"/></clipPath><clipPath id="clip27"><rect x="1417" y="83" width="1148" height="1095"/></clipPath><clipPath id="clip28"><rect x="1417" y="83" width="1148" height="1095"/></clipPath><clipPath id="clip29"><rect x="1417" y="83" width="1148" height="1095"/></clipPath><clipPath id="clip30"><rect x="1417" y="83" width="1148" height="1095"/></clipPath><clipPath id="clip31"><rect x="1417" y="83" width="1148" height="1095"/></clipPath><clipPath id="clip32"><rect x="1417" y="83" width="1148" height="1095"/></clipPath><clipPath id="clip33"><rect x="1417" y="83" width="1148" height="1095"/></clipPath></defs><g clip-path="url(#clip0)" transform="translate(-1417 -82)"><rect x="1418" y="82.9998" width="1148" height="1096" fill="#FFFFFF"/><g clip-path="url(#clip1)"><path d="M1494.5 664.5 2489.5 664.5" stroke="#BFBFBF" stroke-width="3.4375" stroke-linejoin="round" stroke-miterlimit="10" fill="none" fill-rule="evenodd"/></g><g clip-path="url(#clip2)"><path d="M2095.57 222.5 2057.5 222.5 2134.5 222.5" stroke="#A80084" stroke-width="6.875" stroke-linecap="round" stroke-linejoin="round" stroke-miterlimit="10" fill="none"/></g><g clip-path="url(#clip3)"><path d="M2106.48 222.645C2106.48 228.72 2101.56 233.645 2095.48 233.645 2089.41 233.645 2084.48 228.72 2084.48 222.645 2084.48 216.57 2089.41 211.646 2095.48 211.646 2101.56 211.646 2106.48 216.57 2106.48 222.645Z" stroke="#A80084" stroke-width="3.4375" stroke-linejoin="round" stroke-miterlimit="10" fill="#A80084"/></g><g clip-path="url(#clip4)"><path d="M2166.57 310.5 2094.5 310.5 2239.5 310.5" stroke="#E69800" stroke-width="6.875" stroke-linecap="round" stroke-linejoin="round" stroke-miterlimit="10" fill="none"/></g><g clip-path="url(#clip5)"><path d="M2177.48 310.645C2177.48 316.72 2172.56 321.645 2166.48 321.645 2160.41 321.645 2155.48 316.72 2155.48 310.645 2155.48 304.57 2160.41 299.646 2166.48 299.646 2172.56 299.646 2177.48 304.57 2177.48 310.645Z" stroke="#E69800" stroke-width="3.4375" stroke-linejoin="round" stroke-miterlimit="10" fill="#E69800"/></g><g clip-path="url(#clip6)"><path d="M2218.57 399.5 2129.5 399.5 2307.5 399.5" stroke="#FFEBAF" stroke-width="6.875" stroke-linecap="round" stroke-linejoin="round" stroke-miterlimit="10" fill="none"/></g><g clip-path="url(#clip7)"><path d="M2229.48 399.645C2229.48 405.72 2224.56 410.645 2218.48 410.645 2212.41 410.645 2207.48 405.72 2207.48 399.645 2207.48 393.57 2212.41 388.646 2218.48 388.646 2224.56 388.646 2229.48 393.57 2229.48 399.645Z" stroke="#FFEBAF" stroke-width="3.4375" stroke-linejoin="round" stroke-miterlimit="10" fill="#FFEBAF"/></g><g clip-path="url(#clip8)"><path d="M2384.58 487.5 2306.5 487.5 2461.5 487.5" stroke="#FF73DF" stroke-width="6.875" stroke-linecap="round" stroke-linejoin="round" stroke-miterlimit="10" fill="none"/></g><g clip-path="url(#clip9)"><path d="M2395.48 487.645C2395.48 493.72 2390.56 498.645 2384.48 498.645 2378.41 498.645 2373.48 493.72 2373.48 487.645 2373.48 481.57 2378.41 476.646 2384.48 476.646 2390.56 476.646 2395.48 481.57 2395.48 487.645Z" stroke="#FF73DF" stroke-width="3.4375" stroke-linejoin="round" stroke-miterlimit="10" fill="#FF73DF"/></g><g clip-path="url(#clip10)"><path d="M2384.58 576.5 2306.5 576.5 2461.5 576.5" stroke="#C2C2C2" stroke-width="6.875" stroke-linecap="round" stroke-linejoin="round" stroke-miterlimit="10" fill="none"/></g><g clip-path="url(#clip11)"><path d="M2395.48 576.645C2395.48 582.72 2390.56 587.645 2384.48 587.645 2378.41 587.645 2373.48 582.72 2373.48 576.645 2373.48 570.57 2378.41 565.646 2384.48 565.646 2390.56 565.646 2395.48 570.57 2395.48 576.645Z" stroke="#C2C2C2" stroke-width="3.4375" stroke-linejoin="round" stroke-miterlimit="10" fill="#C2C2C2"/></g><g clip-path="url(#clip12)"><text fill="#595959" font-family="Calibri,Calibri_MSFontService,sans-serif" font-weight="400" font-size="41" transform="matrix(1 0 0 1 1468.4 730)">0.0</text></g><g clip-path="url(#clip13)"><text fill="#595959" font-family="Calibri,Calibri_MSFontService,sans-serif" font-weight="400" font-size="41" transform="matrix(1 0 0 1 1634.21 730)">0.5</text></g><g clip-path="url(#clip14)"><text fill="#595959" font-family="Calibri,Calibri_MSFontService,sans-serif" font-weight="400" font-size="41" transform="matrix(1 0 0 1 1800.01 730)">1.0</text></g><g clip-path="url(#clip15)"><text fill="#595959" font-family="Calibri,Calibri_MSFontService,sans-serif" font-weight="400" font-size="41" transform="matrix(1 0 0 1 1965.82 730)">1.5</text></g><g clip-path="url(#clip16)"><text fill="#595959" font-family="Calibri,Calibri_MSFontService,sans-serif" font-weight="400" font-size="41" transform="matrix(1 0 0 1 2131.63 730)">2.0</text></g><g clip-path="url(#clip17)"><text fill="#595959" font-family="Calibri,Calibri_MSFontService,sans-serif" font-weight="400" font-size="41" transform="matrix(1 0 0 1 2297.44 730)">2.5</text></g><g clip-path="url(#clip18)"><text fill="#595959" font-family="Calibri,Calibri_MSFontService,sans-serif" font-weight="400" font-size="41" transform="matrix(1 0 0 1 2463.24 730)">3.0</text></g><g clip-path="url(#clip19)"><path d="M1729.5 809.5 1817.5 809.5" stroke="#A80084" stroke-width="6.875" stroke-linecap="round" stroke-linejoin="round" stroke-miterlimit="10" fill="none" fill-rule="evenodd"/></g><g clip-path="url(#clip20)"><path d="M1784 809C1784 815.075 1779.07 819.999 1773 819.999 1766.92 819.999 1762 815.075 1762 809 1762 802.925 1766.92 798 1773 798 1779.07 798 1784 802.925 1784 809Z" stroke="#A80084" stroke-width="3.4375" stroke-linejoin="round" stroke-miterlimit="10" fill="#A80084"/></g><g clip-path="url(#clip21)"><text fill="#595959" font-family="Calibri,Calibri_MSFontService,sans-serif" font-weight="400" font-size="41" transform="matrix(1 0 0 1 1826.91 822)">Performance Plan</text></g><g clip-path="url(#clip22)"><path d="M1729.5 887.5 1817.5 887.5" stroke="#E69800" stroke-width="6.875" stroke-linecap="round" stroke-linejoin="round" stroke-miterlimit="10" fill="none" fill-rule="evenodd"/></g><g clip-path="url(#clip23)"><path d="M1784 887C1784 893.075 1779.07 898 1773 898 1766.92 898 1762 893.075 1762 887 1762 880.925 1766.92 876 1773 876 1779.07 876 1784 880.925 1784 887Z" stroke="#E69800" stroke-width="3.4375" stroke-linejoin="round" stroke-miterlimit="10" fill="#E69800"/></g><g clip-path="url(#clip24)"><text fill="#595959" font-family="Calibri,Calibri_MSFontService,sans-serif" font-weight="400" font-size="41" transform="matrix(1 0 0 1 1826.91 899)">Improvement Plan</text></g><g clip-path="url(#clip25)"><path d="M1729.5 964.5 1817.5 964.5" stroke="#FFEBAF" stroke-width="6.875" stroke-linecap="round" stroke-linejoin="round" stroke-miterlimit="10" fill="none" fill-rule="evenodd"/></g><g clip-path="url(#clip26)"><path d="M1784 964C1784 970.075 1779.07 975 1773 975 1766.92 975 1762 970.075 1762 964 1762 957.925 1766.92 953 1773 953 1779.07 953 1784 957.925 1784 964Z" stroke="#FFEBAF" stroke-width="3.4375" stroke-linejoin="round" stroke-miterlimit="10" fill="#FFEBAF"/></g><g clip-path="url(#clip27)"><text fill="#595959" font-family="Calibri,Calibri_MSFontService,sans-serif" font-weight="400" font-size="41" transform="matrix(1 0 0 1 1826.91 976)">Priority Improvement Plan</text></g><g clip-path="url(#clip28)"><path d="M1729.5 1042.5 1817.5 1042.5" stroke="#FF73DF" stroke-width="6.875" stroke-linecap="round" stroke-linejoin="round" stroke-miterlimit="10" fill="none" fill-rule="evenodd"/></g><g clip-path="url(#clip29)"><path d="M1784 1042C1784 1048.07 1779.07 1053 1773 1053 1766.92 1053 1762 1048.07 1762 1042 1762 1035.92 1766.92 1031 1773 1031 1779.07 1031 1784 1035.92 1784 1042Z" stroke="#FF73DF" stroke-width="3.4375" stroke-linejoin="round" stroke-miterlimit="10" fill="#FF73DF"/></g><g clip-path="url(#clip30)"><text fill="#595959" font-family="Calibri,Calibri_MSFontService,sans-serif" font-weight="400" font-size="41" transform="matrix(1 0 0 1 1826.91 1054)">Turnaround Plan</text></g><g clip-path="url(#clip31)"><path d="M1729.5 1119.5 1817.5 1119.5" stroke="#C2C2C2" stroke-width="6.875" stroke-linecap="round" stroke-linejoin="round" stroke-miterlimit="10" fill="none" fill-rule="evenodd"/></g><g clip-path="url(#clip32)"><path d="M1784 1119C1784 1125.07 1779.07 1130 1773 1130 1766.92 1130 1762 1125.07 1762 1119 1762 1112.92 1766.92 1108 1773 1108 1779.07 1108 1784 1112.92 1784 1119Z" stroke="#C2C2C2" stroke-width="3.4375" stroke-linejoin="round" stroke-miterlimit="10" fill="#C2C2C2"/></g><g clip-path="url(#clip33)"><text fill="#595959" font-family="Calibri,Calibri_MSFontService,sans-serif" font-weight="400" font-size="41" transform="matrix(1 0 0 1 1826.91 1131)">Insufficient or No Data</text></g><rect x="1418.5" y="83.5" width="1148" height="1096" stroke="#D9D9D9" stroke-width="3.4375" stroke-linejoin="round" stroke-miterlimit="10" fill="none"/></g></svg>