<svg width="1147" height="1130" xmlns="http://www.w3.org/2000/svg" xmlns:xlink="http://www.w3.org/1999/xlink" overflow="hidden"><defs><clipPath id="clip0"><rect x="1501" y="28" width="1147" height="1130"/></clipPath><clipPath id="clip1"><rect x="1502" y="28" width="1144" height="1128"/></clipPath><clipPath id="clip2"><rect x="1558" y="80" width="1026" height="634"/></clipPath><clipPath id="clip3"><rect x="1502" y="28" width="1144" height="1128"/></clipPath><clipPath id="clip4"><rect x="1558" y="80" width="1026" height="634"/></clipPath><clipPath id="clip5"><rect x="1502" y="28" width="1144" height="1128"/></clipPath><clipPath id="clip6"><rect x="1558" y="80" width="1026" height="634"/></clipPath><clipPath id="clip7"><rect x="1502" y="28" width="1144" height="1128"/></clipPath><clipPath id="clip8"><rect x="1558" y="80" width="1026" height="634"/></clipPath><clipPath id="clip9"><rect x="1502" y="28" width="1144" height="1128"/></clipPath><clipPath id="clip10"><rect x="1502" y="28" width="1144" height="1128"/></clipPath><clipPath id="clip11"><rect x="1502" y="28" width="1144" height="1128"/></clipPath><clipPath id="clip12"><rect x="1502" y="28" width="1144" height="1128"/></clipPath><clipPath id="clip13"><rect x="1502" y="28" width="1144" height="1128"/></clipPath><clipPath id="clip14"><rect x="1502" y="28" width="1144" height="1128"/></clipPath><clipPath id="clip15"><rect x="1502" y="28" width="1144" height="1128"/></clipPath><clipPath id="clip16"><rect x="1502" y="28" width="1144" height="1128"/></clipPath><clipPath id="clip17"><rect x="1502" y="28" width="1144" height="1128"/></clipPath><clipPath id="clip18"><rect x="1502" y="28" width="1144" height="1128"/></clipPath><clipPath id="clip19"><rect x="1502" y="28" width="1144" height="1128"/></clipPath><clipPath id="clip20"><rect x="1502" y="28" width="1144" height="1128"/></clipPath><clipPath id="clip21"><rect x="1502" y="28" width="1144" height="1128"/></clipPath><clipPath id="clip22"><rect x="1502" y="28" width="1144" height="1128"/></clipPath><clipPath id="clip23"><rect x="1502" y="28" width="1144" height="1128"/></clipPath><clipPath id="clip24"><rect x="1502" y="28" width="1144" height="1128"/></clipPath><clipPath id="clip25"><rect x="1502" y="28" width="1144" height="1128"/></clipPath><clipPath id="clip26"><rect x="1502" y="28" width="1144" height="1128"/></clipPath><clipPath id="clip27"><rect x="1502" y="28" width="1144" height="1128"/></clipPath><clipPath id="clip28"><rect x="1502" y="28" width="1144" height="1128"/></clipPath><clipPath id="clip29"><rect x="1502" y="28" width="1144" height="1128"/></clipPath></defs><g clip-path="url(#clip0)" transform="translate(-1501 -28)"><rect x="1502" y="28.9999" width="1144" height="1127" fill="#FFFFFF"/><g clip-path="url(#clip1)"><path d="M1558.5 711.5 2580.5 711.5" stroke="#BFBFBF" stroke-width="3.4375" stroke-linejoin="round" stroke-miterlimit="10" fill="none" fill-rule="evenodd"/></g><g clip-path="url(#clip2)"><path d="M2188.57 150.5 2086.5 150.5 2290.5 150.5" stroke="#385723" stroke-width="6.875" stroke-linecap="round" stroke-linejoin="round" stroke-miterlimit="10" fill="none"/></g><g clip-path="url(#clip3)"><path d="M2199.62 150.134C2199.62 156.209 2194.69 161.134 2188.62 161.134 2182.54 161.134 2177.62 156.209 2177.62 150.134 2177.62 144.059 2182.54 139.134 2188.62 139.134 2194.69 139.134 2199.62 144.059 2199.62 150.134Z" stroke="#385723" stroke-width="3.4375" stroke-linejoin="round" stroke-miterlimit="10" fill="#385723"/></g><g clip-path="url(#clip4)"><path d="M2199.57 290.5 2100.5 290.5 2299.5 290.5" stroke="#548235" stroke-width="6.875" stroke-linecap="round" stroke-linejoin="round" stroke-miterlimit="10" fill="none"/></g><g clip-path="url(#clip5)"><path d="M2210.62 290.134C2210.62 296.209 2205.69 301.134 2199.62 301.134 2193.54 301.134 2188.62 296.209 2188.62 290.134 2188.62 284.059 2193.54 279.134 2199.62 279.134 2205.69 279.134 2210.62 284.059 2210.62 290.134Z" stroke="#548235" stroke-width="3.4375" stroke-linejoin="round" stroke-miterlimit="10" fill="#548235"/></g><g clip-path="url(#clip6)"><path d="M2147.57 430.5 2090.5 430.5 2203.5 430.5" stroke="#A9D18E" stroke-width="6.875" stroke-linecap="round" stroke-linejoin="round" stroke-miterlimit="10" fill="none"/></g><g clip-path="url(#clip7)"><path d="M2158.61 430.134C2158.61 436.209 2153.69 441.134 2147.62 441.134 2141.54 441.134 2136.62 436.209 2136.62 430.134 2136.62 424.059 2141.54 419.134 2147.62 419.134 2153.69 419.134 2158.61 424.059 2158.61 430.134Z" stroke="#A9D18E" stroke-width="3.4375" stroke-linejoin="round" stroke-miterlimit="10" fill="#A9D18E"/></g><g clip-path="url(#clip8)"><path d="M2128.57 571.5 2084.5 571.5 2173.5 571.5" stroke="#C5E0B4" stroke-width="6.875" stroke-linecap="round" stroke-linejoin="round" stroke-miterlimit="10" fill="none"/></g><g clip-path="url(#clip9)"><path d="M2139.62 571.134C2139.62 577.209 2134.69 582.134 2128.62 582.134 2122.54 582.134 2117.62 577.209 2117.62 571.134 2117.62 565.059 2122.54 560.135 2128.62 560.135 2134.69 560.135 2139.62 565.059 2139.62 571.134Z" stroke="#C5E0B4" stroke-width="3.4375" stroke-linejoin="round" stroke-miterlimit="10" fill="#C5E0B4"/></g><g clip-path="url(#clip10)"><text fill="#595959" font-family="Calibri,Calibri_MSFontService,sans-serif" font-weight="400" font-size="41" transform="matrix(1 0 0 1 1532.69 777)">0.0</text></g><g clip-path="url(#clip11)"><text fill="#595959" font-family="Calibri,Calibri_MSFontService,sans-serif" font-weight="400" font-size="41" transform="matrix(1 0 0 1 1702.99 777)">0.5</text></g><g clip-path="url(#clip12)"><text fill="#595959" font-family="Calibri,Calibri_MSFontService,sans-serif" font-weight="400" font-size="41" transform="matrix(1 0 0 1 1873.28 777)">1.0</text></g><g clip-path="url(#clip13)"><text fill="#595959" font-family="Calibri,Calibri_MSFontService,sans-serif" font-weight="400" font-size="41" transform="matrix(1 0 0 1 2043.58 777)">1.5</text></g><g clip-path="url(#clip14)"><text fill="#595959" font-family="Calibri,Calibri_MSFontService,sans-serif" font-weight="400" font-size="41" transform="matrix(1 0 0 1 2213.87 777)">2.0</text></g><g clip-path="url(#clip15)"><text fill="#595959" font-family="Calibri,Calibri_MSFontService,sans-serif" font-weight="400" font-size="41" transform="matrix(1 0 0 1 2384.17 777)">2.5</text></g><g clip-path="url(#clip16)"><text fill="#595959" font-family="Calibri,Calibri_MSFontService,sans-serif" font-weight="400" font-size="41" transform="matrix(1 0 0 1 2554.46 777)">3.0</text></g><g clip-path="url(#clip17)"><text fill="#595959" font-family="Calibri,Calibri_MSFontService,sans-serif" font-weight="400" font-size="46" transform="matrix(1 0 0 1 1910.95 846)">Overall Score (%)</text></g><g clip-path="url(#clip18)"><path d="M1732.5 902.5 1820.5 902.5" stroke="#385723" stroke-width="6.875" stroke-linecap="round" stroke-linejoin="round" stroke-miterlimit="10" fill="none" fill-rule="evenodd"/></g><g clip-path="url(#clip19)"><path d="M1787 902.499C1787 908.31 1782.08 913.021 1776 913.021 1769.93 913.021 1765 908.31 1765 902.499 1765 896.689 1769.93 891.978 1776 891.978 1782.08 891.978 1787 896.689 1787 902.499Z" stroke="#385723" stroke-width="3.4375" stroke-linejoin="round" stroke-miterlimit="10" fill="#385723"/></g><g clip-path="url(#clip20)"><text fill="#595959" font-family="Calibri,Calibri_MSFontService,sans-serif" font-weight="400" font-size="41" transform="matrix(1 0 0 1 1830.06 914)">4th Quartile (Highest Overall Score)</text></g><g clip-path="url(#clip21)"><path d="M1732.5 966.5 1820.5 966.5" stroke="#548235" stroke-width="6.875" stroke-linecap="round" stroke-linejoin="round" stroke-miterlimit="10" fill="none" fill-rule="evenodd"/></g><g clip-path="url(#clip22)"><path d="M1787 966C1787 972.075 1782.08 977 1776 977 1769.93 977 1765 972.075 1765 966 1765 959.925 1769.93 955 1776 955 1782.08 955 1787 959.925 1787 966Z" stroke="#548235" stroke-width="3.4375" stroke-linejoin="round" stroke-miterlimit="10" fill="#548235"/></g><g clip-path="url(#clip23)"><text fill="#595959" font-family="Calibri,Calibri_MSFontService,sans-serif" font-weight="400" font-size="41" transform="matrix(1 0 0 1 1830.06 979)">3rd Quartile</text></g><g clip-path="url(#clip24)"><path d="M1732.5 1031.5 1820.5 1031.5" stroke="#A9D18E" stroke-width="6.875" stroke-linecap="round" stroke-linejoin="round" stroke-miterlimit="10" fill="none" fill-rule="evenodd"/></g><g clip-path="url(#clip25)"><path d="M1787 1031C1787 1037.07 1782.08 1042 1776 1042 1769.93 1042 1765 1037.07 1765 1031 1765 1024.92 1769.93 1020 1776 1020 1782.08 1020 1787 1024.92 1787 1031Z" stroke="#A9D18E" stroke-width="3.4375" stroke-linejoin="round" stroke-miterlimit="10" fill="#A9D18E"/></g><g clip-path="url(#clip26)"><text fill="#595959" font-family="Calibri,Calibri_MSFontService,sans-serif" font-weight="400" font-size="41" transform="matrix(1 0 0 1 1830.06 1043)">2nd Quartile</text></g><g clip-path="url(#clip27)"><path d="M1732.5 1096.5 1820.5 1096.5" stroke="#C5E0B4" stroke-width="6.875" stroke-linecap="round" stroke-linejoin="round" stroke-miterlimit="10" fill="none" fill-rule="evenodd"/></g><g clip-path="url(#clip28)"><path d="M1787 1096C1787 1102.07 1782.08 1107 1776 1107 1769.93 1107 1765 1102.07 1765 1096 1765 1089.92 1769.93 1085 1776 1085 1782.08 1085 1787 1089.92 1787 1096Z" stroke="#C5E0B4" stroke-width="3.4375" stroke-linejoin="round" stroke-miterlimit="10" fill="#C5E0B4"/></g><g clip-path="url(#clip29)"><text fill="#595959" font-family="Calibri,Calibri_MSFontService,sans-serif" font-weight="400" font-size="41" transform="matrix(1 0 0 1 1830.06 1108)">1st Quartile (Lowest Overall Score)</text></g><rect x="1502.5" y="29.5001" width="1144" height="1127" stroke="#D9D9D9" stroke-width="3.4375" stroke-linejoin="round" stroke-miterlimit="10" fill="none"/></g></svg>